<?xml version="1.0" encoding="utf-8"?>
<!-- Generator: Adobe Illustrator 23.0.3, SVG Export Plug-In . SVG Version: 6.00 Build 0)  -->
<svg version="1.1" id="Layer_1" xmlns="http://www.w3.org/2000/svg" xmlns:xlink="http://www.w3.org/1999/xlink" x="0px" y="0px"
	 viewBox="0 0 286 250" style="enable-background:new 0 0 286 250;" xml:space="preserve">
<style type="text/css">
	.st0{fill:url(#SVGID_1_);}
	.st1{fill:#0F0F10;}
	.st2{fill:url(#SVGID_2_);}
	.st3{fill:url(#SVGID_3_);}
	.st4{fill:url(#SVGID_4_);}
	.st5{fill:url(#SVGID_5_);}
	.st6{fill:url(#SVGID_6_);}
	.st7{fill:url(#SVGID_7_);}
	.st8{fill:url(#SVGID_8_);}
	.st9{fill:url(#SVGID_9_);}
	.st10{fill:url(#SVGID_10_);}
	.st11{fill:url(#SVGID_11_);}
	.st12{fill:url(#SVGID_12_);}
	.st13{fill:url(#SVGID_13_);}
	.st14{fill:url(#SVGID_14_);}
	.st15{fill:url(#SVGID_15_);}
	.st16{fill:url(#SVGID_16_);}
	.st17{fill:url(#SVGID_17_);}
	.st18{fill:url(#SVGID_18_);}
	.st19{fill:url(#SVGID_19_);}
	.st20{fill:url(#SVGID_20_);}
</style>
<g>
	<radialGradient id="SVGID_1_" cx="153" cy="125" r="125" gradientUnits="userSpaceOnUse">
		<stop  offset="0" style="stop-color:#451D54"/>
		<stop  offset="1" style="stop-color:#17092D"/>
	</radialGradient>
	<circle class="st0" cx="153" cy="125" r="125"/>
	<g>
		<g>
			<path class="st1" d="M228.61,118.78c-5.52-12.58-13.33-25.7-13.18-28.42c0,0-0.71-4.73,2.03-6.11c2.74-1.38,7-2.51,0.16-2.9
				c-24.02,5.17-84.24-26.48-86.73-31.85c-2.2-2.16-2.27-0.91-2.99-0.54c-1.03,0.54-1,3.34-1,3.34s5.88,7.08-11.1,27.87
				c-16.99,20.8-16.56,33.96-16.56,33.96s2.59,7.32,18.65,20.11c0.56-0.49,1.15-0.92,1.75-1.27c0.61-0.36,1.29-0.66,2-0.91
				c-7.82-10.17-16.55-26.67-5.87-40.96c16.85-22.55,20.65-24.9,21.98-26.91c0.12-2.09,24.9,12.33,35.29,34.32l3.17,0.18
				c0,0,10.83-13.27,29.1-7.28c5.68,2.37,14.99,23.51,13.66,38.47c0,0-1.99,10.59-8.85,11.66c-6.86,1.07-6.86,1.07-6.86,1.07
				s9.11,3.54,17.17-0.32C224.08,140.38,234.13,131.36,228.61,118.78z"/>
			<linearGradient id="SVGID_2_" gradientUnits="userSpaceOnUse" x1="99.237" y1="96.1719" x2="230.2298" y2="96.1719">
				<stop  offset="0" style="stop-color:#C29A40"/>
				<stop  offset="0.1538" style="stop-color:#FFD45A"/>
				<stop  offset="0.2061" style="stop-color:#F6CB52"/>
				<stop  offset="0.293" style="stop-color:#DDB13D"/>
				<stop  offset="0.3516" style="stop-color:#C89C2B"/>
				<stop  offset="0.5659" style="stop-color:#F5F2C8"/>
				<stop  offset="0.6159" style="stop-color:#F5F0C3"/>
				<stop  offset="0.674" style="stop-color:#F5EBB5"/>
				<stop  offset="0.7362" style="stop-color:#F4E29E"/>
				<stop  offset="0.8009" style="stop-color:#F4D57D"/>
				<stop  offset="0.8462" style="stop-color:#F3CB62"/>
				<stop  offset="1" style="stop-color:#A3823F"/>
			</linearGradient>
			<path class="st2" d="M228.61,118.78c-5.52-12.58-13.33-25.7-13.18-28.42c0,0-0.71-4.73,2.03-6.11c2.74-1.38,7-2.51,0.16-2.9
				c-24.02,5.17-84.24-26.48-86.73-31.85c-2.2-2.16-2.27-0.91-2.99-0.54c-1.03,0.54-1,3.34-1,3.34s5.88,7.08-11.1,27.87
				c-16.99,20.8-16.56,33.96-16.56,33.96s2.59,7.32,18.65,20.11c0.56-0.49,1.15-0.92,1.75-1.27c0.61-0.36,1.29-0.66,2-0.91
				c-7.82-10.17-16.55-26.67-5.87-40.96c16.85-22.55,20.65-24.9,21.98-26.91c0.12-2.09,24.9,12.33,35.29,34.32l3.17,0.18
				c0,0,10.83-13.27,29.1-7.28c5.68,2.37,14.99,23.51,13.66,38.47c0,0-1.99,10.59-8.85,11.66c-6.86,1.07-6.86,1.07-6.86,1.07
				s9.11,3.54,17.17-0.32C224.08,140.38,234.13,131.36,228.61,118.78z"/>
		</g>
		<linearGradient id="SVGID_3_" gradientUnits="userSpaceOnUse" x1="161.6833" y1="120.9829" x2="174.2613" y2="120.9829">
			<stop  offset="0" style="stop-color:#C29A40"/>
			<stop  offset="0.1538" style="stop-color:#FFD45A"/>
			<stop  offset="0.2061" style="stop-color:#F6CB52"/>
			<stop  offset="0.293" style="stop-color:#DDB13D"/>
			<stop  offset="0.3516" style="stop-color:#C89C2B"/>
			<stop  offset="0.5659" style="stop-color:#F5F2C8"/>
			<stop  offset="0.6159" style="stop-color:#F5F0C3"/>
			<stop  offset="0.674" style="stop-color:#F5EBB5"/>
			<stop  offset="0.7362" style="stop-color:#F4E29E"/>
			<stop  offset="0.8009" style="stop-color:#F4D57D"/>
			<stop  offset="0.8462" style="stop-color:#F3CB62"/>
			<stop  offset="1" style="stop-color:#A3823F"/>
		</linearGradient>
		<path class="st3" d="M170.48,104.88c0,0,10.88,15.5-4.25,32.21c0.34-6.07,0.8-10.48-4.54-16.46
			C168.62,108.15,170.48,104.88,170.48,104.88z"/>
		<linearGradient id="SVGID_4_" gradientUnits="userSpaceOnUse" x1="161.9855" y1="49.101" x2="210.5663" y2="49.101">
			<stop  offset="0" style="stop-color:#C29A40"/>
			<stop  offset="0.1538" style="stop-color:#FFD45A"/>
			<stop  offset="0.2061" style="stop-color:#F6CB52"/>
			<stop  offset="0.293" style="stop-color:#DDB13D"/>
			<stop  offset="0.3516" style="stop-color:#C89C2B"/>
			<stop  offset="0.5659" style="stop-color:#F5F2C8"/>
			<stop  offset="0.6159" style="stop-color:#F5F0C3"/>
			<stop  offset="0.674" style="stop-color:#F5EBB5"/>
			<stop  offset="0.7362" style="stop-color:#F4E29E"/>
			<stop  offset="0.8009" style="stop-color:#F4D57D"/>
			<stop  offset="0.8462" style="stop-color:#F3CB62"/>
			<stop  offset="1" style="stop-color:#A3823F"/>
		</linearGradient>
		<path class="st4" d="M210.45,50.75c-0.39-1.24-1.7-1.93-2.92-1.54c-1.21,0.39-1.88,1.71-1.48,2.95c0.04,0.13,0.09,0.25,0.15,0.37
			c-0.51,0.41-1.08,0.88-1.69,1.4c0.02-0.1,0.03-0.2,0.01-0.33l-0.08-0.49l-0.46-0.17c-0.21-0.08-0.54-0.11-0.88,0.19l-0.08,0.07
			c-2.04,1.69-5.62,4.02-8.81,4.6c0.19-0.61,0.81-2.31,1.55-3.55c0.25-0.03,0.5-0.1,0.73-0.22c0.51-0.26,0.9-0.71,1.09-1.25
			c0.19-0.55,0.16-1.14-0.09-1.66c-0.25-0.53-0.69-0.93-1.25-1.12l0,0c-1.13-0.39-2.37,0.23-2.76,1.37
			c-0.09,0.25-0.13,0.52-0.12,0.78c-1.04,0.92-2.97,2.37-4.01,2.76l-0.03,0.01c-0.82-4.5,0.96-13.75,3.64-22.66
			c1.63-0.8,2.47-2.74,1.89-4.55c-0.64-1.99-2.74-3.11-4.68-2.49c-1.95,0.62-3.01,2.75-2.38,4.74c0.07,0.22,0.16,0.43,0.27,0.63
			c-3.43,8.78-7.8,17.27-11.24,20.19l-0.16-0.26c-0.58-0.95-1.21-3.28-1.46-4.64c0.17-0.2,0.3-0.44,0.39-0.69
			c0.39-1.14-0.2-2.39-1.33-2.78c-0.55-0.19-1.15-0.15-1.67,0.12c-0.51,0.26-0.9,0.7-1.09,1.25c-0.19,0.55-0.16,1.14,0.08,1.66
			c0.11,0.24,0.26,0.45,0.44,0.62c-0.16,1.31-0.65,2.87-0.9,3.58c-2.02-2.44-3.32-6.29-3.87-8.78l-0.02-0.1
			c-0.09-0.45-0.37-0.62-0.58-0.69l-0.47-0.15l-0.37,0.33c-0.09,0.08-0.15,0.17-0.2,0.26c-0.14-0.67-0.28-1.29-0.4-1.85
			c1.09-0.46,1.66-1.71,1.29-2.87c-0.39-1.24-1.7-1.93-2.92-1.54c-0.59,0.19-1.07,0.6-1.35,1.17c-0.28,0.55-0.32,1.19-0.13,1.78
			c0.14,0.43,0.39,0.8,0.72,1.09c0.99,4.75,2.15,13.78-0.5,23.12l-0.22,0.77l4.1,1.42l0.23-0.89c1.25-4.8,0.94-10.87,0.24-16.05
			c1.07,4.05,3.17,8.61,7.93,9.28c1.55,0.22,4.18-0.56,9.22-9.82c2.41-4.43,4.63-9.46,6.05-12.83c-0.96,3.52-2.31,8.86-3.15,13.83
			c-1.74,10.39-0.15,12.63,1.2,13.42c1.24,0.72,2.51,1.02,3.77,1.02c2.96,0,5.85-1.66,8.19-3.43c-3.75,3.65-7.72,8.23-9.69,12.77
			l-0.37,0.84l4.1,1.42l0.3-0.74c2.75-6.75,7.71-13.34,13.97-18.61c0.26,0.01,0.52-0.03,0.77-0.11
			C210.18,53.31,210.85,51.98,210.45,50.75z M164.5,37.12L164.5,37.12c-0.07,0.02-0.15,0.03-0.23,0.02l-0.13-0.01l-0.12-0.07
			c-0.14-0.08-0.25-0.22-0.3-0.38c-0.05-0.17-0.04-0.35,0.03-0.51c0.07-0.15,0.2-0.26,0.35-0.3c0.32-0.1,0.67,0.09,0.78,0.44
			C164.99,36.65,164.82,37.01,164.5,37.12z M189.7,30.03c-0.12-0.18-0.22-0.37-0.29-0.58c-0.35-1.1,0.22-2.27,1.27-2.61
			c1.05-0.34,2.2,0.29,2.55,1.39c0.35,1.08-0.21,2.25-1.24,2.6l-0.37,0.12l-0.39-0.03c-0.35-0.02-0.69-0.14-0.98-0.34l-0.33-0.22
			L189.7,30.03z M208.45,52.08c-0.1,0.03-0.2,0.04-0.31,0.01l-0.12-0.03l-0.11-0.08c-0.08-0.06-0.19-0.17-0.24-0.34
			c-0.11-0.34,0.06-0.71,0.38-0.81c0.32-0.1,0.67,0.09,0.78,0.44l0,0C208.94,51.61,208.77,51.97,208.45,52.08z"/>
		<g>
			<path class="st1" d="M143.99,79.49c-12.01-0.67-22.29,8.51-22.96,20.52s8.51,22.29,20.52,22.96
				c12.01,0.67,22.29-8.51,22.96-20.52S155.99,80.16,143.99,79.49z M161.76,102.76c-0.55,9.73-8.88,17.18-18.61,16.64
				c-9.73-0.55-17.18-8.88-16.64-18.61c0.55-9.73,8.88-17.18,18.61-16.64C154.85,84.69,162.3,93.02,161.76,102.76z"/>
			<g>
				<linearGradient id="SVGID_5_" gradientUnits="userSpaceOnUse" x1="120.9908" y1="101.2276" x2="164.5413" y2="101.2276">
					<stop  offset="0" style="stop-color:#C29A40"/>
					<stop  offset="0.1538" style="stop-color:#FFD45A"/>
					<stop  offset="0.2061" style="stop-color:#F6CB52"/>
					<stop  offset="0.293" style="stop-color:#DDB13D"/>
					<stop  offset="0.3516" style="stop-color:#C89C2B"/>
					<stop  offset="0.5659" style="stop-color:#F5F2C8"/>
					<stop  offset="0.6159" style="stop-color:#F5F0C3"/>
					<stop  offset="0.674" style="stop-color:#F5EBB5"/>
					<stop  offset="0.7362" style="stop-color:#F4E29E"/>
					<stop  offset="0.8009" style="stop-color:#F4D57D"/>
					<stop  offset="0.8462" style="stop-color:#F3CB62"/>
					<stop  offset="1" style="stop-color:#A3823F"/>
				</linearGradient>
				<path class="st5" d="M143.99,79.49c-12.01-0.67-22.29,8.51-22.96,20.52s8.51,22.29,20.52,22.96
					c12.01,0.67,22.29-8.51,22.96-20.52S155.99,80.16,143.99,79.49z M161.76,102.76c-0.55,9.73-8.88,17.18-18.61,16.64
					c-9.73-0.55-17.18-8.88-16.64-18.61c0.55-9.73,8.88-17.18,18.61-16.64C154.85,84.69,162.3,93.02,161.76,102.76z"/>
			</g>
		</g>
		<linearGradient id="SVGID_6_" gradientUnits="userSpaceOnUse" x1="177.3324" y1="111.7028" x2="214.1493" y2="111.7028">
			<stop  offset="0" style="stop-color:#C29A40"/>
			<stop  offset="0.1538" style="stop-color:#FFD45A"/>
			<stop  offset="0.2061" style="stop-color:#F6CB52"/>
			<stop  offset="0.293" style="stop-color:#DDB13D"/>
			<stop  offset="0.3516" style="stop-color:#C89C2B"/>
			<stop  offset="0.5659" style="stop-color:#F5F2C8"/>
			<stop  offset="0.6159" style="stop-color:#F5F0C3"/>
			<stop  offset="0.674" style="stop-color:#F5EBB5"/>
			<stop  offset="0.7362" style="stop-color:#F4E29E"/>
			<stop  offset="0.8009" style="stop-color:#F4D57D"/>
			<stop  offset="0.8462" style="stop-color:#F3CB62"/>
			<stop  offset="1" style="stop-color:#A3823F"/>
		</linearGradient>
		<path class="st6" d="M196.79,92.98c-10.15-0.57-18.85,7.35-19.43,17.69c-0.58,10.34,7.18,19.19,17.33,19.76
			c10.15,0.57,18.85-7.35,19.43-17.69C214.7,102.39,206.94,93.55,196.79,92.98z M210.02,112.96c-0.48,8.59-7.71,15.17-16.14,14.7
			c-8.43-0.47-14.87-7.82-14.39-16.41s7.71-15.17,16.14-14.7C204.06,97.02,210.5,104.37,210.02,112.96z"/>
		<g>
			<linearGradient id="SVGID_7_" gradientUnits="userSpaceOnUse" x1="181.0385" y1="112.3278" x2="208.4512" y2="112.3278">
				<stop  offset="0" style="stop-color:#C29A40"/>
				<stop  offset="0.1538" style="stop-color:#FFD45A"/>
				<stop  offset="0.2061" style="stop-color:#F6CB52"/>
				<stop  offset="0.293" style="stop-color:#DDB13D"/>
				<stop  offset="0.3516" style="stop-color:#C89C2B"/>
				<stop  offset="0.5659" style="stop-color:#F5F2C8"/>
				<stop  offset="0.6159" style="stop-color:#F5F0C3"/>
				<stop  offset="0.674" style="stop-color:#F5EBB5"/>
				<stop  offset="0.7362" style="stop-color:#F4E29E"/>
				<stop  offset="0.8009" style="stop-color:#F4D57D"/>
				<stop  offset="0.8462" style="stop-color:#F3CB62"/>
				<stop  offset="1" style="stop-color:#A3823F"/>
			</linearGradient>
			<path class="st7" d="M194.73,126.28c-0.25,0-0.51-0.01-0.76-0.02c-7.55-0.42-13.33-7.02-12.9-14.69
				c0.43-7.68,6.92-13.58,14.47-13.16l0,0c7.55,0.42,13.33,7.02,12.9,14.69C208.01,120.51,201.94,126.28,194.73,126.28z
				 M194.76,100.08c-6.32,0-11.64,5.06-12.01,11.58c-0.38,6.74,4.69,12.53,11.3,12.9c6.61,0.37,12.3-4.81,12.67-11.56
				c0.38-6.74-4.69-12.53-11.3-12.9C195.21,100.08,194.99,100.08,194.76,100.08z"/>
		</g>
		<linearGradient id="SVGID_8_" gradientUnits="userSpaceOnUse" x1="186.5082" y1="105.7485" x2="194.6602" y2="105.7485">
			<stop  offset="0" style="stop-color:#C29A40"/>
			<stop  offset="0.1538" style="stop-color:#FFD45A"/>
			<stop  offset="0.2061" style="stop-color:#F6CB52"/>
			<stop  offset="0.293" style="stop-color:#DDB13D"/>
			<stop  offset="0.3516" style="stop-color:#C89C2B"/>
			<stop  offset="0.5659" style="stop-color:#F5F2C8"/>
			<stop  offset="0.6159" style="stop-color:#F5F0C3"/>
			<stop  offset="0.674" style="stop-color:#F5EBB5"/>
			<stop  offset="0.7362" style="stop-color:#F4E29E"/>
			<stop  offset="0.8009" style="stop-color:#F4D57D"/>
			<stop  offset="0.8462" style="stop-color:#F3CB62"/>
			<stop  offset="1" style="stop-color:#A3823F"/>
		</linearGradient>
		<path class="st8" d="M194.65,105.15c-0.11,1.89-1.73,3.34-3.62,3.23c-0.24-0.01-0.47-0.05-0.69-0.11c-0.12,1-1,1.75-2.02,1.7
			c-1.06-0.06-1.88-0.97-1.82-2.03c0.05-0.88,0.68-1.59,1.51-1.77c-0.16-0.43-0.24-0.91-0.22-1.4c0.11-1.89,1.73-3.34,3.62-3.23
			C193.31,101.64,194.76,103.26,194.65,105.15z"/>
		<g>
			<linearGradient id="SVGID_9_" gradientUnits="userSpaceOnUse" x1="128.6423" y1="102.9291" x2="159.4906" y2="102.9291">
				<stop  offset="0" style="stop-color:#C29A40"/>
				<stop  offset="0.1538" style="stop-color:#FFD45A"/>
				<stop  offset="0.2061" style="stop-color:#F6CB52"/>
				<stop  offset="0.293" style="stop-color:#DDB13D"/>
				<stop  offset="0.3516" style="stop-color:#C89C2B"/>
				<stop  offset="0.5659" style="stop-color:#F5F2C8"/>
				<stop  offset="0.6159" style="stop-color:#F5F0C3"/>
				<stop  offset="0.674" style="stop-color:#F5EBB5"/>
				<stop  offset="0.7362" style="stop-color:#F4E29E"/>
				<stop  offset="0.8009" style="stop-color:#F4D57D"/>
				<stop  offset="0.8462" style="stop-color:#F3CB62"/>
				<stop  offset="1" style="stop-color:#A3823F"/>
			</linearGradient>
			<path class="st9" d="M144.09,118.35c-0.29,0-0.59-0.01-0.88-0.02c-8.49-0.48-15.01-7.77-14.54-16.26
				c0.23-4.11,2.05-7.89,5.12-10.64c3.07-2.75,7.03-4.13,11.14-3.9l0,0c4.11,0.23,7.89,2.05,10.64,5.12s4.13,7.03,3.9,11.14
				c-0.23,4.11-2.05,7.89-5.12,10.64C151.49,116.98,147.88,118.35,144.09,118.35z M144.06,89.2c-7.22,0-13.29,5.66-13.69,12.96
				c-0.42,7.56,5.38,14.05,12.93,14.47c3.66,0.21,7.18-1.03,9.92-3.47c2.73-2.44,4.35-5.8,4.56-9.46c0.21-3.66-1.03-7.18-3.47-9.92
				c-2.44-2.73-5.8-4.35-9.46-4.56l0,0C144.58,89.21,144.31,89.2,144.06,89.2z"/>
		</g>
		<g>
			<path class="st1" d="M142.12,95.32c-0.11,1.89-1.73,3.34-3.62,3.23c-0.28-0.02-0.54-0.07-0.8-0.14
				c-0.29,0.67-0.97,1.13-1.75,1.09c-0.99-0.06-1.75-0.9-1.69-1.89c0.04-0.72,0.5-1.31,1.12-1.56c-0.1-0.35-0.14-0.72-0.12-1.11
				c0.11-1.89,1.73-3.34,3.62-3.23C140.77,91.81,142.22,93.43,142.12,95.32z"/>
			<linearGradient id="SVGID_10_" gradientUnits="userSpaceOnUse" x1="134.2562" y1="95.6012" x2="142.121" y2="95.6012">
				<stop  offset="0" style="stop-color:#C29A40"/>
				<stop  offset="0.1538" style="stop-color:#FFD45A"/>
				<stop  offset="0.2061" style="stop-color:#F6CB52"/>
				<stop  offset="0.293" style="stop-color:#DDB13D"/>
				<stop  offset="0.3516" style="stop-color:#C89C2B"/>
				<stop  offset="0.5659" style="stop-color:#F5F2C8"/>
				<stop  offset="0.6159" style="stop-color:#F5F0C3"/>
				<stop  offset="0.674" style="stop-color:#F5EBB5"/>
				<stop  offset="0.7362" style="stop-color:#F4E29E"/>
				<stop  offset="0.8009" style="stop-color:#F4D57D"/>
				<stop  offset="0.8462" style="stop-color:#F3CB62"/>
				<stop  offset="1" style="stop-color:#A3823F"/>
			</linearGradient>
			<path class="st10" d="M142.12,95.32c-0.11,1.89-1.73,3.34-3.62,3.23c-0.28-0.02-0.54-0.07-0.8-0.14
				c-0.29,0.67-0.97,1.13-1.75,1.09c-0.99-0.06-1.75-0.9-1.69-1.89c0.04-0.72,0.5-1.31,1.12-1.56c-0.1-0.35-0.14-0.72-0.12-1.11
				c0.11-1.89,1.73-3.34,3.62-3.23C140.77,91.81,142.22,93.43,142.12,95.32z"/>
		</g>
		<g>
			<g>
				<path d="M150.57,172.14h5.93v0.14c0,1.1,0.25,1.94,0.76,2.54c0.51,0.6,1.22,0.9,2.13,0.9c0.71,0,1.3-0.22,1.77-0.67
					c0.46-0.45,0.7-1.02,0.7-1.7c0-0.56-0.18-1.08-0.55-1.54c-0.36-0.46-0.99-0.98-1.87-1.54c-0.47-0.32-1.12-0.73-1.94-1.23
					c-1.51-0.94-2.42-1.6-2.74-1.96c-0.62-0.7-1.08-1.41-1.36-2.12c-0.28-0.71-0.42-1.48-0.42-2.3c0-2.24,0.81-4.11,2.44-5.62
					c1.63-1.51,3.66-2.27,6.11-2.27c2.33,0,4.22,0.69,5.67,2.08c1.45,1.38,2.18,3.19,2.18,5.43v0.39l-5.93-0.02
					c-0.03-0.93-0.23-1.63-0.6-2.11c-0.37-0.48-0.9-0.72-1.59-0.72c-0.62,0-1.16,0.2-1.6,0.6c-0.44,0.4-0.66,0.89-0.66,1.45
					c0,0.88,0.98,1.92,2.94,3.13c0.32,0.2,0.58,0.36,0.78,0.48c1.98,1.23,3.36,2.39,4.14,3.47c0.78,1.08,1.17,2.32,1.17,3.72
					c0,2.4-0.83,4.41-2.49,6.01c-1.66,1.6-3.74,2.41-6.25,2.41c-2.72,0-4.87-0.72-6.43-2.16c-1.57-1.44-2.35-3.4-2.35-5.9
					c0-0.08,0.01-0.21,0.02-0.41C150.57,172.4,150.57,172.25,150.57,172.14z"/>
				<path d="M170.56,168.95c0-2.17,0.43-4.22,1.28-6.12c0.85-1.91,2.08-3.57,3.67-4.98c1.22-1.08,2.59-1.9,4.11-2.45
					c1.52-0.56,3.16-0.83,4.9-0.83c3.56,0,6.47,1.13,8.75,3.4c2.27,2.27,3.41,5.17,3.41,8.71c0,1.99-0.35,3.88-1.06,5.67
					c-0.71,1.79-1.72,3.37-3.05,4.76c-1.25,1.28-2.72,2.26-4.41,2.94c-1.7,0.68-3.53,1.03-5.51,1.03c-3.53,0-6.43-1.14-8.69-3.41
					C171.69,175.37,170.56,172.47,170.56,168.95z M184.15,160.03c-2.22,0-4.08,0.84-5.57,2.51c-1.49,1.67-2.24,3.78-2.24,6.32
					c0,1.96,0.61,3.57,1.84,4.84c1.22,1.26,2.79,1.89,4.71,1.89c2.24,0,4.12-0.84,5.67-2.51c1.54-1.67,2.32-3.73,2.32-6.18
					c0-2.07-0.62-3.73-1.85-4.98C187.8,160.65,186.17,160.03,184.15,160.03z"/>
				<path d="M202.19,180.4l-4.86-25.09h5.93l3.22,17.75l9.54-17.75h6.52l-13.82,25.09H202.19z"/>
				<path d="M219.85,180.4l4.86-25.09h5.79l-4.86,25.09H219.85z M225.23,152.66l1.07-5.47h5.79l-1.07,5.47H225.23z"/>
				<path d="M255.96,171.61c-1,2.98-2.65,5.3-4.94,6.96c-2.29,1.66-5,2.49-8.13,2.49c-3.57,0-6.49-1.13-8.76-3.39
					c-2.27-2.26-3.4-5.17-3.4-8.73c0-2.13,0.42-4.14,1.25-6.03c0.84-1.89,2.04-3.54,3.6-4.94c1.19-1.06,2.53-1.87,4.04-2.43
					c1.51-0.56,3.12-0.83,4.84-0.83c3.13,0,5.77,0.85,7.93,2.54c2.15,1.7,3.53,4.02,4.14,6.97h-5.95c-0.58-1.32-1.4-2.33-2.45-3.02
					c-1.06-0.69-2.31-1.04-3.75-1.04c-2.3,0-4.18,0.81-5.65,2.43c-1.47,1.62-2.2,3.71-2.2,6.26c0,1.99,0.62,3.61,1.85,4.86
					c1.23,1.25,2.83,1.87,4.79,1.87c1.4,0,2.65-0.33,3.76-1c1.11-0.67,2.05-1.66,2.83-2.97H255.96z"/>
				<path d="M275.3,180.4l0.32-1.73c-0.87,0.81-1.83,1.41-2.9,1.8c-1.06,0.4-2.25,0.59-3.56,0.59c-3.47,0-6.28-1.14-8.44-3.41
					c-2.16-2.27-3.24-5.25-3.24-8.93c0-1.55,0.23-3.03,0.7-4.45c0.46-1.41,1.17-2.78,2.11-4.11c1.26-1.75,2.82-3.09,4.66-4.01
					c1.85-0.93,3.87-1.39,6.08-1.39c1.67,0,3.22,0.32,4.63,0.96s2.66,1.58,3.74,2.83l0.62-3.24H286l-5,25.09H275.3z M271.29,160.03
					c-2.18,0-4.05,0.84-5.63,2.52c-1.58,1.68-2.37,3.71-2.37,6.08c0,2.08,0.6,3.76,1.81,5.04c1.21,1.28,2.8,1.92,4.78,1.92
					c2.2,0,4.07-0.84,5.6-2.52c1.53-1.68,2.29-3.75,2.29-6.22c0-1.99-0.61-3.63-1.84-4.9C274.7,160.66,273.16,160.03,271.29,160.03z
					"/>
			</g>
			<g>
				<linearGradient id="SVGID_11_" gradientUnits="userSpaceOnUse" x1="180.4459" y1="206.4798" x2="258.811" y2="128.1147">
					<stop  offset="0" style="stop-color:#C29A40"/>
					<stop  offset="0.1538" style="stop-color:#FFD45A"/>
					<stop  offset="0.2061" style="stop-color:#F6CB52"/>
					<stop  offset="0.293" style="stop-color:#DDB13D"/>
					<stop  offset="0.3516" style="stop-color:#C89C2B"/>
					<stop  offset="0.5659" style="stop-color:#F5F2C8"/>
					<stop  offset="0.6159" style="stop-color:#F5F0C3"/>
					<stop  offset="0.674" style="stop-color:#F5EBB5"/>
					<stop  offset="0.7362" style="stop-color:#F4E29E"/>
					<stop  offset="0.8009" style="stop-color:#F4D57D"/>
					<stop  offset="0.8462" style="stop-color:#F3CB62"/>
					<stop  offset="1" style="stop-color:#A3823F"/>
				</linearGradient>
				<path class="st11" d="M150.57,172.14h5.93v0.14c0,1.1,0.25,1.94,0.76,2.54c0.51,0.6,1.22,0.9,2.13,0.9
					c0.71,0,1.3-0.22,1.77-0.67c0.46-0.45,0.7-1.02,0.7-1.7c0-0.56-0.18-1.08-0.55-1.54c-0.36-0.46-0.99-0.98-1.87-1.54
					c-0.47-0.32-1.12-0.73-1.94-1.23c-1.51-0.94-2.42-1.6-2.74-1.96c-0.62-0.7-1.08-1.41-1.36-2.12c-0.28-0.71-0.42-1.48-0.42-2.3
					c0-2.24,0.81-4.11,2.44-5.62c1.63-1.51,3.66-2.27,6.11-2.27c2.33,0,4.22,0.69,5.67,2.08c1.45,1.38,2.18,3.19,2.18,5.43v0.39
					l-5.93-0.02c-0.03-0.93-0.23-1.63-0.6-2.11c-0.37-0.48-0.9-0.72-1.59-0.72c-0.62,0-1.16,0.2-1.6,0.6
					c-0.44,0.4-0.66,0.89-0.66,1.45c0,0.88,0.98,1.92,2.94,3.13c0.32,0.2,0.58,0.36,0.78,0.48c1.98,1.23,3.36,2.39,4.14,3.47
					c0.78,1.08,1.17,2.32,1.17,3.72c0,2.4-0.83,4.41-2.49,6.01c-1.66,1.6-3.74,2.41-6.25,2.41c-2.72,0-4.87-0.72-6.43-2.16
					c-1.57-1.44-2.35-3.4-2.35-5.9c0-0.08,0.01-0.21,0.02-0.41C150.57,172.4,150.57,172.25,150.57,172.14z"/>
				<linearGradient id="SVGID_12_" gradientUnits="userSpaceOnUse" x1="180.4459" y1="206.4798" x2="258.811" y2="128.1147">
					<stop  offset="0" style="stop-color:#C29A40"/>
					<stop  offset="0.1538" style="stop-color:#FFD45A"/>
					<stop  offset="0.2061" style="stop-color:#F6CB52"/>
					<stop  offset="0.293" style="stop-color:#DDB13D"/>
					<stop  offset="0.3516" style="stop-color:#C89C2B"/>
					<stop  offset="0.5659" style="stop-color:#F5F2C8"/>
					<stop  offset="0.6159" style="stop-color:#F5F0C3"/>
					<stop  offset="0.674" style="stop-color:#F5EBB5"/>
					<stop  offset="0.7362" style="stop-color:#F4E29E"/>
					<stop  offset="0.8009" style="stop-color:#F4D57D"/>
					<stop  offset="0.8462" style="stop-color:#F3CB62"/>
					<stop  offset="1" style="stop-color:#A3823F"/>
				</linearGradient>
				<path class="st12" d="M170.56,168.95c0-2.17,0.43-4.22,1.28-6.12c0.85-1.91,2.08-3.57,3.67-4.98c1.22-1.08,2.59-1.9,4.11-2.45
					c1.52-0.56,3.16-0.83,4.9-0.83c3.56,0,6.47,1.13,8.75,3.4c2.27,2.27,3.41,5.17,3.41,8.71c0,1.99-0.35,3.88-1.06,5.67
					c-0.71,1.79-1.72,3.37-3.05,4.76c-1.25,1.28-2.72,2.26-4.41,2.94c-1.7,0.68-3.53,1.03-5.51,1.03c-3.53,0-6.43-1.14-8.69-3.41
					C171.69,175.37,170.56,172.47,170.56,168.95z M184.15,160.03c-2.22,0-4.08,0.84-5.57,2.51c-1.49,1.67-2.24,3.78-2.24,6.32
					c0,1.96,0.61,3.57,1.84,4.84c1.22,1.26,2.79,1.89,4.71,1.89c2.24,0,4.12-0.84,5.67-2.51c1.54-1.67,2.32-3.73,2.32-6.18
					c0-2.07-0.62-3.73-1.85-4.98C187.8,160.65,186.17,160.03,184.15,160.03z"/>
				<linearGradient id="SVGID_13_" gradientUnits="userSpaceOnUse" x1="180.4459" y1="206.4798" x2="258.811" y2="128.1147">
					<stop  offset="0" style="stop-color:#C29A40"/>
					<stop  offset="0.1538" style="stop-color:#FFD45A"/>
					<stop  offset="0.2061" style="stop-color:#F6CB52"/>
					<stop  offset="0.293" style="stop-color:#DDB13D"/>
					<stop  offset="0.3516" style="stop-color:#C89C2B"/>
					<stop  offset="0.5659" style="stop-color:#F5F2C8"/>
					<stop  offset="0.6159" style="stop-color:#F5F0C3"/>
					<stop  offset="0.674" style="stop-color:#F5EBB5"/>
					<stop  offset="0.7362" style="stop-color:#F4E29E"/>
					<stop  offset="0.8009" style="stop-color:#F4D57D"/>
					<stop  offset="0.8462" style="stop-color:#F3CB62"/>
					<stop  offset="1" style="stop-color:#A3823F"/>
				</linearGradient>
				<path class="st13" d="M202.19,180.4l-4.86-25.09h5.93l3.22,17.75l9.54-17.75h6.52l-13.82,25.09H202.19z"/>
				<linearGradient id="SVGID_14_" gradientUnits="userSpaceOnUse" x1="180.4459" y1="206.4798" x2="258.811" y2="128.1147">
					<stop  offset="0" style="stop-color:#C29A40"/>
					<stop  offset="0.1538" style="stop-color:#FFD45A"/>
					<stop  offset="0.2061" style="stop-color:#F6CB52"/>
					<stop  offset="0.293" style="stop-color:#DDB13D"/>
					<stop  offset="0.3516" style="stop-color:#C89C2B"/>
					<stop  offset="0.5659" style="stop-color:#F5F2C8"/>
					<stop  offset="0.6159" style="stop-color:#F5F0C3"/>
					<stop  offset="0.674" style="stop-color:#F5EBB5"/>
					<stop  offset="0.7362" style="stop-color:#F4E29E"/>
					<stop  offset="0.8009" style="stop-color:#F4D57D"/>
					<stop  offset="0.8462" style="stop-color:#F3CB62"/>
					<stop  offset="1" style="stop-color:#A3823F"/>
				</linearGradient>
				<path class="st14" d="M219.85,180.4l4.86-25.09h5.79l-4.86,25.09H219.85z M225.23,152.66l1.07-5.47h5.79l-1.07,5.47H225.23z"/>
				<linearGradient id="SVGID_15_" gradientUnits="userSpaceOnUse" x1="180.4459" y1="206.4798" x2="258.811" y2="128.1147">
					<stop  offset="0" style="stop-color:#C29A40"/>
					<stop  offset="0.1538" style="stop-color:#FFD45A"/>
					<stop  offset="0.2061" style="stop-color:#F6CB52"/>
					<stop  offset="0.293" style="stop-color:#DDB13D"/>
					<stop  offset="0.3516" style="stop-color:#C89C2B"/>
					<stop  offset="0.5659" style="stop-color:#F5F2C8"/>
					<stop  offset="0.6159" style="stop-color:#F5F0C3"/>
					<stop  offset="0.674" style="stop-color:#F5EBB5"/>
					<stop  offset="0.7362" style="stop-color:#F4E29E"/>
					<stop  offset="0.8009" style="stop-color:#F4D57D"/>
					<stop  offset="0.8462" style="stop-color:#F3CB62"/>
					<stop  offset="1" style="stop-color:#A3823F"/>
				</linearGradient>
				<path class="st15" d="M255.96,171.61c-1,2.98-2.65,5.3-4.94,6.96c-2.29,1.66-5,2.49-8.13,2.49c-3.57,0-6.49-1.13-8.76-3.39
					c-2.27-2.26-3.4-5.17-3.4-8.73c0-2.13,0.42-4.14,1.25-6.03c0.84-1.89,2.04-3.54,3.6-4.94c1.19-1.06,2.53-1.87,4.04-2.43
					c1.51-0.56,3.12-0.83,4.84-0.83c3.13,0,5.77,0.85,7.93,2.54c2.15,1.7,3.53,4.02,4.14,6.97h-5.95c-0.58-1.32-1.4-2.33-2.45-3.02
					c-1.06-0.69-2.31-1.04-3.75-1.04c-2.3,0-4.18,0.81-5.65,2.43c-1.47,1.62-2.2,3.71-2.2,6.26c0,1.99,0.62,3.61,1.85,4.86
					c1.23,1.25,2.83,1.87,4.79,1.87c1.4,0,2.65-0.33,3.76-1c1.11-0.67,2.05-1.66,2.83-2.97H255.96z"/>
				<linearGradient id="SVGID_16_" gradientUnits="userSpaceOnUse" x1="180.4459" y1="206.4798" x2="258.811" y2="128.1147">
					<stop  offset="0" style="stop-color:#C29A40"/>
					<stop  offset="0.1538" style="stop-color:#FFD45A"/>
					<stop  offset="0.2061" style="stop-color:#F6CB52"/>
					<stop  offset="0.293" style="stop-color:#DDB13D"/>
					<stop  offset="0.3516" style="stop-color:#C89C2B"/>
					<stop  offset="0.5659" style="stop-color:#F5F2C8"/>
					<stop  offset="0.6159" style="stop-color:#F5F0C3"/>
					<stop  offset="0.674" style="stop-color:#F5EBB5"/>
					<stop  offset="0.7362" style="stop-color:#F4E29E"/>
					<stop  offset="0.8009" style="stop-color:#F4D57D"/>
					<stop  offset="0.8462" style="stop-color:#F3CB62"/>
					<stop  offset="1" style="stop-color:#A3823F"/>
				</linearGradient>
				<path class="st16" d="M275.3,180.4l0.32-1.73c-0.87,0.81-1.83,1.41-2.9,1.8c-1.06,0.4-2.25,0.59-3.56,0.59
					c-3.47,0-6.28-1.14-8.44-3.41c-2.16-2.27-3.24-5.25-3.24-8.93c0-1.55,0.23-3.03,0.7-4.45c0.46-1.41,1.17-2.78,2.11-4.11
					c1.26-1.75,2.82-3.09,4.66-4.01c1.85-0.93,3.87-1.39,6.08-1.39c1.67,0,3.22,0.32,4.63,0.96s2.66,1.58,3.74,2.83l0.62-3.24H286
					l-5,25.09H275.3z M271.29,160.03c-2.18,0-4.05,0.84-5.63,2.52c-1.58,1.68-2.37,3.71-2.37,6.08c0,2.08,0.6,3.76,1.81,5.04
					c1.21,1.28,2.8,1.92,4.78,1.92c2.2,0,4.07-0.84,5.6-2.52c1.53-1.68,2.29-3.75,2.29-6.22c0-1.99-0.61-3.63-1.84-4.9
					C274.7,160.66,273.16,160.03,271.29,160.03z"/>
			</g>
		</g>
		<linearGradient id="SVGID_17_" gradientUnits="userSpaceOnUse" x1="2.728484e-12" y1="150.5801" x2="145.6282" y2="150.5801">
			<stop  offset="0" style="stop-color:#C29A40"/>
			<stop  offset="0.1538" style="stop-color:#FFD45A"/>
			<stop  offset="0.2061" style="stop-color:#F6CB52"/>
			<stop  offset="0.293" style="stop-color:#DDB13D"/>
			<stop  offset="0.3516" style="stop-color:#C89C2B"/>
			<stop  offset="0.5659" style="stop-color:#F5F2C8"/>
			<stop  offset="0.6159" style="stop-color:#F5F0C3"/>
			<stop  offset="0.674" style="stop-color:#F5EBB5"/>
			<stop  offset="0.7362" style="stop-color:#F4E29E"/>
			<stop  offset="0.8009" style="stop-color:#F4D57D"/>
			<stop  offset="0.8462" style="stop-color:#F3CB62"/>
			<stop  offset="1" style="stop-color:#A3823F"/>
		</linearGradient>
		<path class="st17" d="M135.66,170c-13-2.81-27.01-0.73-38.63,5.75c-4.5-5.16-2.49-13.44,1.7-18.85
			c4.21-5.43,10.13-9.22,14.35-14.64c1.43-1.84,2.59-4.66,0.95-6.32c-1.21-1.23-3.23-1-4.89-0.55c-4.05,1.09-7.88,2.98-11.21,5.53
			c1.89-2.45,3.83-5,4.53-8.01c0.22-0.92,0.31-1.91,0.01-2.81c-0.87-2.6-4.41-3.14-7.04-2.36c-2.63,0.78-5.07,2.4-7.81,2.46
			c2.17-4.36,2.38-9.65,0.58-14.17c-0.95-2.38-2.46-4.53-4.34-6.28c-1.4-1.3-3.01-2.38-4.76-3.16c-1.75-0.78-3.9-0.85-5.79-1.05
			c-4.08-0.44-8.19-0.54-12.28-0.31c-8.19,0.45-16.31,2.21-23.97,5.15c-7.61,2.93-14.78,7.05-21.08,12.24
			C9.2,128.22,3.24,135.25,0.84,143.7c-1.07,3.78-1.35,8.04,0.58,11.46c2.65,4.7,8.63,6.42,14.03,6.41
			c2.95,9.51,11.65,16.49,21.19,19.35c9.54,2.86,19.82,2.1,29.56,0.03c1.03-0.22,2.11-0.48,2.87-1.22c0.75-0.74,0.97-2.11,0.18-2.81
			c-0.7-0.61-1.76-0.42-2.67-0.2c-8.82,2.13-18.12,3.21-26.93,1.04c-8.81-2.17-17.06-8.06-20.25-16.56
			c13.92-1.93,27.25-7.98,37.86-17.19c3.46-3,6.73-6.5,8.09-10.88c1.36-4.37,0.29-9.78-3.52-12.31c-3.07-2.04-7.1-1.83-10.72-1.13
			c-9.82,1.9-19.03,6.89-25.98,14.08c-6.16,6.37-10.65,14.9-10.18,23.75c-3.32-0.15-7.03-0.47-9.23-2.97
			c-2.13-2.43-2.05-6.09-1.25-9.22c1.92-7.5,7.13-13.75,13-18.79c14.63-12.55,34.4-18.93,53.61-17.29
			c4.82,0.41,10.19,1.7,12.64,5.87c1.58,2.7,1.55,6.06,0.96,9.13c-0.67,3.49-2.07,6.96-4.67,9.39c-1.52,1.42-3.36,2.42-5.17,3.44
			c-8.31,4.69-16.21,10.12-23.56,16.2c-2.79,2.31-5.55,4.76-7.4,7.88c-0.55,0.93-1.03,1.99-0.88,3.06c0.4,2.85,4.35,3.29,7.17,2.72
			c15.31-3.09,28.81-14.07,34.95-28.43c0.45-1.05,0.88-2.14,1.65-2.98c0.74-0.8,1.74-1.31,2.74-1.75c3.03-1.3,6.32-2.02,9.62-2.09
			c-6.05,9.95-14.09,18.69-23.5,25.56c-0.85,0.62-1.74,1.26-2.21,2.19c-0.47,0.93-0.35,2.26,0.54,2.8c1.08,0.65,2.43-0.15,3.42-0.93
			c10.54-8.33,20.64-17.79,33.25-22.43c-4.85,6.12-11.42,10.75-15.92,17.13c-4.5,6.38-6.39,15.79-1.24,21.66
			c-5.37,3.35-10.04,7.82-13.62,13.04c-0.66,0.97-1.31,2.04-1.26,3.21c0.05,1.08,0.97,2.17,2,2.1c0.09-0.01,0.18-0.02,0.27-0.04
			c0.74-0.19,1.21-0.9,1.63-1.54c3.17-4.81,7.66-8.74,12.83-11.27c0.8-0.39,1.68-0.76,2.57-0.62c0.62,0.1,1.17,0.43,1.72,0.75
			c11.23,6.54,25.34,7.9,37.61,3.61c4.04-1.41,8.46-4.29,8.39-8.57C145.55,173.66,140.24,170.99,135.66,170z M32.27,175.69
			c0-0.11-0.02-0.23-0.05-0.34C32.25,175.46,32.27,175.57,32.27,175.69z M20.43,147.7c0.29-0.76,0.62-1.51,0.98-2.23
			c1.82-3.69,4.43-6.95,7.4-9.8c5.86-5.62,13.17-9.7,21.02-11.75c4.39-1.14,11.67-1.76,12.26,4.45c0.23,2.36-0.77,4.68-2.03,6.69
			c-2.79,4.44-6.93,7.88-11.3,10.78c-8.97,5.94-19.23,9.92-29.86,11.56C18.65,154.11,19.24,150.79,20.43,147.7z M66.33,150.06
			c-3.1,2.77-6.4,5.39-9.83,7.79c-1.16,0.84-2.34,1.64-3.48,2.37c-1.15,0.73-2.38,1.47-3.66,2.17c-0.58,0.32-1.13,0.53-1.64,0.65
			c-0.09,0.01-0.17,0.02-0.25,0.04c-0.08-0.02-0.15-0.03-0.23-0.04c0.21-0.38,0.31-0.49,0.32-0.49l0.07-0.08
			c0.34-0.41,0.69-0.85,1.05-1.3c2.04-2.55,4.82-4.7,7.36-6.73c4.93-3.96,10.17-7.47,15.48-10.88c0,0,0.03-0.02,0.03-0.02
			c0.98-0.65,1.97-1.27,2.94-1.83c0.07-0.04,0.13-0.08,0.2-0.12C72.09,144.57,69.28,147.42,66.33,150.06z M141.49,179.62
			c-0.12,0.32-0.35,0.57-0.59,0.81c-0.58,0.58-1.22,1.1-1.92,1.54c-0.41,0.26-1.26,0.93-1.77,0.93c0,0-0.03,0-0.03,0l-0.24,0.11
			c-0.68,0.31-1.35,0.58-1.96,0.8c-0.63,0.22-1.29,0.42-1.96,0.61c-1.38,0.31-2.82,0.55-4.26,0.71c-1.48,0.16-2.98,0.27-4.45,0.34
			c-2.74,0.13-5.49,0-8.18-0.38c-2.65-0.37-5.56-0.95-8.31-1.89c-2.28-0.77-4.44-1.79-6.25-3.14c-0.08-0.06-0.16-0.11-0.23-0.17
			c2.57-1.32,5.2-2.53,7.85-3.58c3.19-1.28,6.55-2.25,10-2.88l0.07-0.02c1.73-0.43,3.68-0.65,5.8-0.65c1.89,0,3.77,0.09,5.6,0.28
			c0.3,0.07,0.66,0.1,1.09,0.11c0.41,0.12,0.79,0.19,1.16,0.2c1.1,0.19,2.23,0.45,3.36,0.79c1.06,0.31,2.07,0.76,2.99,1.33
			c0.16,0.15,0.35,0.29,0.57,0.44c0.13,0.08,0.23,0.16,0.3,0.24l0.34,0.34l0.05,0.03c0.04,0.06,0.09,0.12,0.15,0.17
			c0.49,0.49,0.8,1.06,0.88,1.74C141.59,178.81,141.63,179.23,141.49,179.62z"/>
		<linearGradient id="SVGID_18_" gradientUnits="userSpaceOnUse" x1="102.7898" y1="152.9424" x2="143.0213" y2="152.9424">
			<stop  offset="0" style="stop-color:#C29A40"/>
			<stop  offset="0.1538" style="stop-color:#FFD45A"/>
			<stop  offset="0.2061" style="stop-color:#F6CB52"/>
			<stop  offset="0.293" style="stop-color:#DDB13D"/>
			<stop  offset="0.3516" style="stop-color:#C89C2B"/>
			<stop  offset="0.5659" style="stop-color:#F5F2C8"/>
			<stop  offset="0.6159" style="stop-color:#F5F0C3"/>
			<stop  offset="0.674" style="stop-color:#F5EBB5"/>
			<stop  offset="0.7362" style="stop-color:#F4E29E"/>
			<stop  offset="0.8009" style="stop-color:#F4D57D"/>
			<stop  offset="0.8462" style="stop-color:#F3CB62"/>
			<stop  offset="1" style="stop-color:#A3823F"/>
		</linearGradient>
		<path class="st18" d="M106.5,166.85c-0.09,0-0.17,0-0.26-0.01c-1.13-0.07-2.27-0.62-2.89-1.57c-0.55-0.85-0.66-1.92-0.48-2.92
			c0.18-0.99,0.61-1.92,1.08-2.82c1.45-2.77,3.27-5.34,5.08-7.89c1.74-2.45,3.5-4.89,5.39-7.23c0.25-0.31,0.52-0.63,0.86-0.84
			c0.53-0.32,1.24-0.33,1.79-0.04c0.55,0.29,0.93,0.88,0.99,1.5c0.1,1.02-0.59,1.92-1.23,2.71c-1.93,2.39-3.77,4.84-5.52,7.37
			c-0.88,1.28-1.74,2.57-2.57,3.87c-0.41,0.64-0.82,1.28-1.21,1.93c-0.33,0.56-0.37,1.25-0.71,1.81c0.04-0.06,0.8-0.28,0.92-0.36
			c0.36-0.23,0.68-0.51,1.04-0.73c0.8-0.49,1.59-1.04,2.33-1.63c3.43-2.17,9.89-10.9,14.91-13.34c2.25-1.59,12.35-5.92,13.23-6.74
			l0.66-0.38c0.78-0.76,1.64-0.59,2.47,0.16c0.86,0.78,0.83,1.07,0.02,1.88c-1.37,1.37-3.54,1.22-5.33,1.78
			c-3.44,1.07-6.76,3.43-9.77,5.43c-2.08,1.38-3.77,3.49-5.5,5.29c-1.47,1.53-3,3.35-4.42,4.99
			C113.57,163.89,108.85,166.87,106.5,166.85z M106.24,162.89C106.25,162.89,106.25,162.89,106.24,162.89
			C106.25,162.89,106.25,162.89,106.24,162.89z"/>
		<linearGradient id="SVGID_19_" gradientUnits="userSpaceOnUse" x1="118.8885" y1="137.8724" x2="124.7062" y2="137.8724">
			<stop  offset="0" style="stop-color:#C29A40"/>
			<stop  offset="0.1538" style="stop-color:#FFD45A"/>
			<stop  offset="0.2061" style="stop-color:#F6CB52"/>
			<stop  offset="0.293" style="stop-color:#DDB13D"/>
			<stop  offset="0.3516" style="stop-color:#C89C2B"/>
			<stop  offset="0.5659" style="stop-color:#F5F2C8"/>
			<stop  offset="0.6159" style="stop-color:#F5F0C3"/>
			<stop  offset="0.674" style="stop-color:#F5EBB5"/>
			<stop  offset="0.7362" style="stop-color:#F4E29E"/>
			<stop  offset="0.8009" style="stop-color:#F4D57D"/>
			<stop  offset="0.8462" style="stop-color:#F3CB62"/>
			<stop  offset="1" style="stop-color:#A3823F"/>
		</linearGradient>
		<path class="st19" d="M120.96,141.61c-0.3,0-0.66-0.08-1.06-0.32c-0.96-0.59-1.27-1.59-0.79-2.56l0.02-0.05
			c0.33-0.59,0.66-1.18,0.98-1.77l0.06-0.1c0.31-0.55,0.61-1.1,0.92-1.65c0.31-0.59,0.74-0.83,1.06-0.93
			c0.33-0.11,0.87-0.16,1.52,0.19c0.63,0.34,0.87,0.81,0.97,1.14c0.1,0.35,0.14,0.9-0.24,1.56c-0.3,0.54-0.61,1.12-0.9,1.71
			c-0.3,0.6-0.62,1.17-0.95,1.7c-0.3,0.64-0.75,0.9-1.09,1C121.32,141.57,121.15,141.61,120.96,141.61z"/>
		<linearGradient id="SVGID_20_" gradientUnits="userSpaceOnUse" x1="122.2157" y1="153.0311" x2="156.9982" y2="153.0311">
			<stop  offset="0" style="stop-color:#C29A40"/>
			<stop  offset="0.1538" style="stop-color:#FFD45A"/>
			<stop  offset="0.2061" style="stop-color:#F6CB52"/>
			<stop  offset="0.293" style="stop-color:#DDB13D"/>
			<stop  offset="0.3516" style="stop-color:#C89C2B"/>
			<stop  offset="0.5659" style="stop-color:#F5F2C8"/>
			<stop  offset="0.6159" style="stop-color:#F5F0C3"/>
			<stop  offset="0.674" style="stop-color:#F5EBB5"/>
			<stop  offset="0.7362" style="stop-color:#F4E29E"/>
			<stop  offset="0.8009" style="stop-color:#F4D57D"/>
			<stop  offset="0.8462" style="stop-color:#F3CB62"/>
			<stop  offset="1" style="stop-color:#A3823F"/>
		</linearGradient>
		<path class="st20" d="M129.81,166.93h-0.04c-0.16,0-0.31-0.02-0.46-0.05c-0.04,0-0.08,0-0.13,0c-1.06-0.04-2.08-0.33-3.02-0.87
			c-0.88-0.41-1.63-1.02-2.23-1.83c-0.56-0.75-1-1.55-1.3-2.38c-0.31-0.87-0.45-1.82-0.42-2.82c0.04-1.01,0.26-1.95,0.65-2.81
			l0.01-0.03c1-2.08,2.64-3.46,4.88-4.08c0.57-0.18,1.17-0.06,1.64,0.31c0.4,0.32,0.65,0.75,0.74,1.24
			c0.07,0.42,0.03,0.82-0.12,1.19c-0.2,0.5-0.61,0.87-1.14,1.05l-0.12,0.03c-0.68,0.15-1.23,0.45-1.69,0.93
			c-0.47,0.49-0.77,1.07-0.92,1.76c-0.1,0.56-0.09,1.12,0.04,1.72c0.12,0.56,0.34,1.01,0.66,1.38l0.05,0.06
			c0.69,0.89,1.6,1.3,2.88,1.3c0.42,0,0.85-0.05,1.28-0.16c0.46-0.12,0.94-0.26,1.41-0.44c0.06-0.03,0.12-0.05,0.18-0.08
			c0.18-0.1,0.35-0.21,0.51-0.34c0.9-0.74,1.46-1.71,1.73-2.95c0.29-1.32,0.29-2.6,0.01-3.79l-0.01-0.03
			c-0.18-0.86-0.43-1.73-0.74-2.6c-0.37-1.04-0.56-2.1-0.56-3.16l0-0.11c0.07-0.82,0.26-1.65,0.56-2.47
			c0.28-0.78,0.65-1.55,1.08-2.27c1.11-1.88,2.6-3.58,4.41-5.04l0.09-0.07c1.04-0.69,1.98-0.38,2.51,0.15
			c0.57,0.57,0.67,1.13,0.65,1.5c-0.02,0.36-0.16,0.89-0.73,1.37c-0.66,0.54-1.26,1.14-1.8,1.8l-0.08,0.09
			c-0.53,0.53-1.03,1.14-1.48,1.79c-0.43,0.63-0.76,1.29-0.98,1.96l-0.01,0.03c-0.26,0.71-0.32,1.35-0.2,1.96
			c0.15,0.77,0.36,1.61,0.61,2.49c0.35,1.06,0.58,2.11,0.69,3.13c0.09,0.9,0.09,1.84,0,2.82c1.07-0.8,2.1-1.65,3.09-2.56
			c1.97-1.81,3.89-3.68,5.7-5.55l3.09-3.28c0.99-1.06,1.95-2.15,2.85-3.23l0.08-0.09c0.36-0.36,0.83-0.55,1.35-0.55
			c0.52,0,0.98,0.19,1.35,0.55l0.08,0.09c0.71,0.86,0.7,1.9-0.03,2.67c-0.32,0.38-0.66,0.78-1.01,1.2c-0.36,0.42-0.7,0.83-1.03,1.22
			l-0.03,0.03c-1.71,1.91-3.5,3.78-5.31,5.56c-1.83,1.79-3.71,3.53-5.61,5.17c-1.06,0.93-2.16,1.81-3.27,2.62
			c-1.12,0.82-2.31,1.57-3.52,2.24c-0.7,0.37-1.41,0.71-2.14,1.03c-0.7,0.4-1.48,0.69-2.33,0.87c-0.4,0.09-0.81,0.15-1.21,0.2
			c-0.37,0.06-0.75,0.1-1.13,0.12L129.81,166.93z"/>
	</g>
</g>
</svg>
