<?xml version="1.0" encoding="utf-8"?>
<!-- Generator: Adobe Illustrator 23.0.3, SVG Export Plug-In . SVG Version: 6.00 Build 0)  -->
<svg version="1.1" id="Layer_1" xmlns="http://www.w3.org/2000/svg" xmlns:xlink="http://www.w3.org/1999/xlink" x="0px" y="0px"
	 viewBox="0 0 584.29 337.98" style="enable-background:new 0 0 584.29 337.98;" xml:space="preserve">
<style type="text/css">
	.st0{fill:#FFFFFF;}
	.st1{fill:#E6C884;}
</style>
<g>
	<g>
		<path class="st0" d="M44.43,272.97H16.02c-2.93,0-5.46-1.04-7.58-3.12c-2.13-2.08-3.19-4.55-3.19-7.43V133.06
			c0-2.87,1.06-5.34,3.19-7.43c2.12-2.08,4.65-3.12,7.58-3.12h17.65c2.93,0,5.45,1.04,7.58,3.12c2.12,2.08,3.19,4.56,3.19,7.43v8.61
			H33.24v-8.18c0-2.58-0.57-4.84-1.7-6.78c-1.13-1.94-3.05-2.91-5.74-2.91h-1.7c-2.69,0-4.64,0.97-5.85,2.91
			c-1.2,1.94-1.81,4.2-1.81,6.78v128.51c0,2.73,0.6,5.03,1.81,6.89c1.2,1.87,3.15,2.8,5.85,2.8h9.14v-65.44h-8.5v-1.29h19.7V272.97z
			"/>
		<path class="st0" d="M81.02,272.97l-25.4-145.08v145.08h-1.29V122.51h11.41l20.23,114.09V122.51h1.08v150.46H81.02z"/>
		<path class="st0" d="M109.43,123.8v73.4h13.99v1.29h-13.99v73.19h19.37v1.29H98.24V122.51h30.57v1.29H109.43z"/>
		<path class="st0" d="M169.92,272.97h-35.73l27.98-149.17h-24.54v-1.29h35.73l-27.98,149.17h24.54V272.97z"/>
		<path class="st0" d="M181.97,272.97V122.51h26.69c2.93,0,5.45,1.04,7.58,3.12c2.12,2.08,3.19,4.56,3.19,7.43v129.37
			c0,2.87-1.06,5.35-3.19,7.43c-2.13,2.08-4.65,3.12-7.58,3.12H181.97z M198.69,271.68c2.68,0,4.95-0.93,6.79-2.8
			c1.84-1.86,2.76-4.16,2.76-6.89V133.49c0-2.58-0.92-4.84-2.76-6.78c-1.84-1.94-4.1-2.91-6.79-2.91h-5.52v147.88H198.69z"/>
		<path class="st0" d="M248.7,221.74h-17.65l-4.74,51.23h-1.29l13.99-150.46h11.62l13.99,150.46h-11.19L248.7,221.74z M248.7,220.45
			l-8.83-92.99l-8.61,92.99H248.7z"/>
		<path class="st0" d="M333.72,272.97h-35.73l27.98-149.17h-24.54v-1.29h35.73l-27.98,149.17h24.54V272.97z"/>
		<path class="st0" d="M365.15,221.74H347.5l-4.74,51.23h-1.29l13.99-150.46h11.62l13.99,150.46h-11.19L365.15,221.74z
			 M365.15,220.45l-8.83-92.99l-8.61,92.99H365.15z"/>
		<path class="st0" d="M454.69,187.52c0,2.44-0.73,4.59-2.2,6.46c-1.46,1.87-3.29,3.16-5.49,3.88c2.19,0.58,4.02,1.8,5.49,3.66
			c1.46,1.87,2.2,4.02,2.2,6.46v54.46c0,2.87-1.06,5.35-3.18,7.43c-2.13,2.08-4.65,3.12-7.58,3.12h-26.69V122.51h26.69
			c2.93,0,5.45,1.04,7.58,3.12c2.12,2.08,3.18,4.56,3.18,7.43V187.52z M435.65,197.2c2.69,0,4.67-0.97,5.94-2.91
			c1.27-1.94,1.91-4.27,1.91-7v-53.81c0-2.58-0.64-4.84-1.91-6.78c-1.27-1.94-3.26-2.91-5.94-2.91h-7.21v73.4H435.65z M443.5,208.39
			c0-2.72-0.64-5.06-1.91-7c-1.27-1.94-3.26-2.91-5.94-2.91h-7.21v73.19h7.21c2.69,0,4.67-0.93,5.94-2.8
			c1.27-1.86,1.91-4.16,1.91-6.89V208.39z"/>
		<path class="st0" d="M475.79,123.8v73.4h13.99v1.29h-13.99v73.19h19.37v1.29h-30.57V122.51h30.57v1.29H475.79z"/>
		<path class="st0" d="M540.79,187.52c0,2.44-0.73,4.59-2.2,6.46c-1.46,1.87-3.29,3.16-5.49,3.88c2.19,0.58,4.02,1.8,5.49,3.66
			c1.46,1.87,2.2,4.02,2.2,6.46v54.46c0,2.87-1.06,5.35-3.18,7.43c-2.13,2.08-4.65,3.12-7.58,3.12h-26.69V122.51h26.69
			c2.93,0,5.45,1.04,7.58,3.12c2.12,2.08,3.18,4.56,3.18,7.43V187.52z M521.75,197.2c2.69,0,4.67-0.97,5.94-2.91
			c1.27-1.94,1.91-4.27,1.91-7v-53.81c0-2.58-0.64-4.84-1.91-6.78c-1.27-1.94-3.26-2.91-5.94-2.91h-7.21v73.4H521.75z M529.6,208.39
			c0-2.72-0.64-5.06-1.91-7c-1.27-1.94-3.26-2.91-5.94-2.91h-7.21v73.19h7.21c2.69,0,4.67-0.93,5.94-2.8
			c1.27-1.86,1.91-4.16,1.91-6.89V208.39z"/>
		<path class="st0" d="M561.89,123.8v73.4h13.99v1.29h-13.99v73.19h19.37v1.29h-30.57V122.51h30.57v1.29H561.89z"/>
	</g>
	<g>
		<g>
			<path class="st1" d="M342.4,39.59c-2.13,0.46-3.9,2.12-4.47,4.23c-0.51,1.84-0.14,3.58,0.75,4.95l-12.66,8.19
				c0.23,0.35,0.37,0.77,0.37,1.23c0,1.25-1.01,2.26-2.26,2.26s-2.26-1.01-2.26-2.26s1.01-2.26,2.26-2.26V37.26
				c4.45,0,7.94-4.11,6.88-8.74c-0.58-2.56-2.66-4.63-5.22-5.22c-4.63-1.06-8.74,2.43-8.74,6.88c0,1.94,0.79,3.7,2.05,4.98
				l-11.63,11.54c0.41,0.41,0.66,0.97,0.66,1.59c0,1.25-1.01,2.26-2.26,2.26c-1.25,0-2.26-1.01-2.26-2.26c0-1,0.65-1.83,1.54-2.14
				l-10.28-30.43c3.67-1.24,6.19-5,5.36-9.26c-0.6-3.11-3.08-5.64-6.18-6.3c-5.24-1.11-9.87,2.86-9.87,7.91
				c0,3.57,2.32,6.56,5.52,7.64l-10.28,30.43c0.89,0.3,1.54,1.14,1.54,2.14c0,1.25-1.01,2.26-2.26,2.26s-2.26-1.01-2.26-2.26
				c0-0.62,0.25-1.19,0.66-1.59l-11.63-11.54c1.51-1.52,2.34-3.72,1.97-6.11c-0.47-3.07-3.05-5.53-6.13-5.89
				c-4.29-0.5-7.93,2.83-7.93,7.02c0,3.91,3.17,7.07,7.07,7.07v18.66c1.25,0,2.26,1.01,2.26,2.26s-1.01,2.26-2.26,2.26
				c-1.25,0-2.26-1.01-2.26-2.26c0-0.45,0.14-0.87,0.37-1.23l-12.66-8.19c0.89-1.37,1.25-3.11,0.75-4.95
				c-0.58-2.1-2.34-3.77-4.47-4.22c-4.02-0.86-7.55,2.27-7.38,6.18c0.09,2.06,1.4,3.89,3.19,4.94c1.81,1.06,3.42,0.96,4.83,0.47
				l9.64,27.66c0.89,2.55,1.61,5.14,2.19,7.77h75.3c0.57-2.63,1.3-5.22,2.19-7.77l9.64-27.66c1.41,0.49,3.01,0.6,4.82-0.46
				c1.79-1.04,3.1-2.87,3.2-4.93C349.96,41.87,346.42,38.73,342.4,39.59z M274.74,69.94c-1.55,0.39-3.45-1.88-4.25-5.07
				c-0.8-3.19-0.2-6.09,1.35-6.48c1.55-0.39,3.45,1.88,4.25,5.07C276.88,66.65,276.28,69.55,274.74,69.94z M292.29,69.85
				c-2.43,0-4.39-4.05-4.39-9.06c0-5,1.97-9.06,4.39-9.06c2.42,0,4.39,4.05,4.39,9.06C296.68,65.79,294.71,69.85,292.29,69.85z
				 M314.09,64.87c-0.8,3.19-2.71,5.46-4.25,5.07c-1.55-0.39-2.15-3.29-1.35-6.48c0.8-3.19,2.71-5.46,4.25-5.07
				C314.29,58.79,314.89,61.69,314.09,64.87z"/>
		</g>
		<g>
			<path class="st1" d="M255.61,92.2c0.38,2.92,0.59,5.86,0.59,8.81v0.12h72.17v-0.12c0-2.95,0.2-5.9,0.59-8.81H255.61z"/>
		</g>
	</g>
	<g>
		<path class="st0" d="M583.29,83.11l-221.29,0c-0.55,0-1,0.45-1,1l0,0c0,0.55,0.45,1,1,1l221.29,0c0.55,0,1-0.45,1-1l0,0
			C584.29,83.56,583.84,83.11,583.29,83.11z"/>
	</g>
	<g>
		<path class="st0" d="M222.29,83.11L1,83.11c-0.55,0-1,0.45-1,1h0c0,0.55,0.45,1,1,1l221.29,0c0.55,0,1-0.45,1-1l0,0
			C223.29,83.56,222.84,83.11,222.29,83.11z"/>
	</g>
	<g>
		<path class="st0" d="M583.29,312.12L1,312.11c-0.55,0-1,0.45-1,1h0c0,0.55,0.45,1,1,1l582.29,0.01c0.55,0,1-0.45,1-1l0,0
			C584.29,312.56,583.84,312.12,583.29,312.12z"/>
	</g>
</g>
</svg>
