<?xml version="1.0" encoding="utf-8"?>
<!-- Generator: Adobe Illustrator 23.0.3, SVG Export Plug-In . SVG Version: 6.00 Build 0)  -->
<svg version="1.1" id="Layer_1" xmlns="http://www.w3.org/2000/svg" xmlns:xlink="http://www.w3.org/1999/xlink" x="0px" y="0px"
	 viewBox="0 0 952.65 567.97" style="enable-background:new 0 0 952.65 567.97;" xml:space="preserve">
<style type="text/css">
	.st0{fill:#FFFFFF;}
	.st1{fill:#E6C884;}
</style>
<g>
	<path class="st0" d="M120.71,124.25v357.35H94.13l0.51-337.41l-36.3,337.41H43L6.2,144.19v337.41H3.13V124.25h27.1l32.21,294.47
		L93.1,124.25H120.71z"/>
	<path class="st0" d="M147.29,481.59V124.25h26.58v357.35H147.29z"/>
	<path class="st0" d="M263.85,182.02v-31.7c0-6.13-1.37-11.5-4.09-16.1c-2.73-4.6-7.33-6.9-13.8-6.9h-4.09
		c-6.48,0-11.08,2.3-13.8,6.9c-2.73,4.6-4.09,9.97-4.09,16.1v127.81c0,6.48,2.21,12.01,6.65,16.61c4.43,4.6,9.88,6.9,16.36,6.9h18.4
		c6.81,0,12.69,2.48,17.64,7.41c4.94,4.94,7.41,10.82,7.41,17.64v129.85c0,6.82-2.48,12.7-7.41,17.64
		c-4.94,4.94-10.82,7.41-17.64,7.41h-42.94c-6.82,0-12.7-2.47-17.64-7.41c-4.94-4.94-7.41-10.82-7.41-17.64v-32.72h26.58v31.7
		c0,6.48,1.36,11.93,4.09,16.36c2.72,4.43,7.32,6.65,13.8,6.65h4.09c6.47,0,11.07-2.21,13.8-6.65c2.72-4.43,4.09-9.88,4.09-16.36
		V327.72c0-6.47-2.22-12.01-6.65-16.61c-4.43-4.6-9.89-6.9-16.36-6.9h-18.4c-6.82,0-12.7-2.47-17.64-7.41
		c-4.94-4.94-7.41-10.82-7.41-17.64V149.3c0-6.81,2.47-12.69,7.41-17.64c4.94-4.94,10.82-7.41,17.64-7.41h42.94
		c6.81,0,12.69,2.48,17.64,7.41c4.94,4.94,7.41,10.82,7.41,17.64v32.72H263.85z"/>
	<path class="st0" d="M447.88,182.02v-31.7c0-6.13-1.37-11.5-4.09-16.1c-2.73-4.6-7.33-6.9-13.8-6.9h-4.09
		c-6.48,0-11.08,2.3-13.8,6.9c-2.73,4.6-4.09,9.97-4.09,16.1v127.81c0,6.48,2.21,12.01,6.65,16.61c4.43,4.6,9.88,6.9,16.36,6.9h18.4
		c6.82,0,12.69,2.48,17.64,7.41c4.94,4.94,7.41,10.82,7.41,17.64v129.85c0,6.82-2.48,12.7-7.41,17.64
		c-4.94,4.94-10.82,7.41-17.64,7.41h-42.94c-6.82,0-12.7-2.47-17.64-7.41c-4.94-4.94-7.41-10.82-7.41-17.64v-32.72h26.58v31.7
		c0,6.48,1.36,11.93,4.09,16.36c2.72,4.43,7.32,6.65,13.8,6.65h4.09c6.47,0,11.07-2.21,13.8-6.65c2.72-4.43,4.09-9.88,4.09-16.36
		V327.72c0-6.47-2.22-12.01-6.64-16.61c-4.43-4.6-9.89-6.9-16.36-6.9h-18.4c-6.82,0-12.7-2.47-17.64-7.41
		c-4.94-4.94-7.41-10.82-7.41-17.64V149.3c0-6.81,2.47-12.69,7.41-17.64c4.94-4.94,10.82-7.41,17.64-7.41h42.94
		c6.82,0,12.69,2.48,17.64,7.41c4.94,4.94,7.41,10.82,7.41,17.64v32.72H447.88z"/>
	<path class="st0" d="M521.5,481.59c-6.96,0-12.96-2.47-18-7.41c-5.05-4.94-7.56-10.82-7.56-17.64V149.3
		c0-6.81,2.52-12.69,7.56-17.64c5.04-4.94,11.04-7.41,18-7.41h41.92c6.95,0,12.95,2.48,18,7.41c5.04,4.94,7.56,10.82,7.56,17.64
		v307.25c0,6.82-2.52,12.7-7.56,17.64c-5.05,4.94-11.05,7.41-18,7.41H521.5z M540.19,127.32c-6.4,0-10.94,2.3-13.64,6.9
		c-2.69,4.6-4.03,9.97-4.03,16.1v305.2c0,6.48,1.34,11.93,4.03,16.36c2.69,4.43,7.24,6.65,13.64,6.65h4.54
		c6.39,0,10.94-2.21,13.63-6.65c2.69-4.43,4.04-9.88,4.04-16.36v-305.2c0-6.13-1.35-11.5-4.04-16.1c-2.69-4.6-7.24-6.9-13.63-6.9
		H540.19z"/>
	<path class="st0" d="M628.86,481.59l-29.14-357.35h26.07L653.4,468.3l28.63-344.05h3.07l-29.14,357.35H628.86z"/>
	<path class="st0" d="M701.44,481.59V124.25h26.58v357.35H701.44z"/>
	<path class="st0" d="M779.15,481.59c-6.96,0-12.96-2.47-18-7.41c-5.05-4.94-7.56-10.82-7.56-17.64V149.3
		c0-6.81,2.52-12.69,7.56-17.64c5.04-4.94,11.04-7.41,18-7.41h41.92c6.95,0,12.95,2.48,18,7.41c5.04,4.94,7.56,10.82,7.56,17.64
		v20.45h-26.58v-19.43c0-6.13-1.35-11.5-4.04-16.1c-2.69-4.6-7.24-6.9-13.63-6.9h-4.03c-6.4,0-11.02,2.3-13.88,6.9
		c-2.86,4.6-4.29,9.97-4.29,16.1v305.2c0,6.48,1.43,11.93,4.29,16.36c2.86,4.43,7.48,6.65,13.88,6.65h4.03
		c6.39,0,10.93-2.21,13.63-6.65c2.69-4.43,4.04-9.88,4.04-16.36V436.1h26.58v20.45c0,6.82-2.52,12.7-7.56,17.64
		c-5.05,4.94-11.05,7.41-18,7.41H779.15z"/>
	<path class="st0" d="M910.02,359.92H868.1l-11.25,121.67h-3.07l33.23-357.35h27.61l33.23,357.35h-26.58L910.02,359.92z
		 M910.02,356.86l-20.96-220.85l-20.45,220.85H910.02z"/>
</g>
<g>
	<path class="st0" d="M2.64,512.1c0-0.42,0.15-0.79,0.45-1.09c0.3-0.3,0.66-0.45,1.09-0.45s0.79,0.15,1.1,0.45
		c0.31,0.3,0.45,0.67,0.44,1.11v17.14c1.6-1.85,3.25-3.64,4.97-5.37c1.71-1.74,3.41-3.49,5.08-5.26c0.29-0.32,0.67-0.48,1.12-0.48
		c0.42,0,0.79,0.15,1.09,0.45c0.3,0.3,0.45,0.66,0.45,1.09c0,0.43-0.15,0.78-0.44,1.08l-7.54,7.82l7.84,10.31
		c0.22,0.28,0.33,0.59,0.33,0.94c0,0.42-0.15,0.79-0.45,1.09c-0.3,0.3-0.66,0.45-1.09,0.45c-0.51,0-0.92-0.21-1.23-0.62l-7.56-10.22
		l-2.57,2.5v6.72c0,0.42-0.15,0.79-0.45,1.09c-0.3,0.3-0.66,0.45-1.09,0.45s-0.79-0.15-1.1-0.46s-0.45-0.67-0.44-1.1V512.1z"/>
	<path class="st0" d="M20.81,519.94c0-0.42,0.15-0.79,0.45-1.09c0.3-0.3,0.66-0.45,1.09-0.45c0.29,0,0.57,0.09,0.85,0.27
		c0.27,0.18,0.46,0.41,0.56,0.67l7.4,16.74l7.36-16.66c0.12-0.25,0.31-0.47,0.59-0.66s0.56-0.29,0.83-0.29
		c0.42,0,0.79,0.15,1.09,0.45c0.3,0.3,0.45,0.66,0.45,1.09c0,0.22-0.05,0.43-0.15,0.64l-8.79,19.84c-0.1,0.25-0.29,0.47-0.57,0.65
		c-0.28,0.18-0.56,0.28-0.83,0.28s-0.55-0.09-0.82-0.28c-0.27-0.18-0.46-0.4-0.58-0.65l-8.79-19.91
		C20.85,520.42,20.81,520.2,20.81,519.94z"/>
	<path class="st0" d="M54.4,518.4c1.57,0,2.98,0.45,4.23,1.36c1.25,0.91,2.35,1.87,3.28,2.88l0.2-2.77c0-0.42,0.12-0.79,0.35-1.09
		c0.23-0.3,0.56-0.45,0.99-0.45s0.79,0.15,1.09,0.45c0.3,0.3,0.45,0.66,0.45,1.09v19.86c0,0.42-0.15,0.79-0.45,1.09
		c-0.3,0.3-0.66,0.45-1.09,0.45s-0.79-0.15-1.09-0.45c-0.3-0.3-0.45-0.66-0.45-1.09v-2.5c-0.97,1.05-2.11,2.01-3.44,2.86
		s-2.72,1.27-4.19,1.27c-1.51,0-2.91-0.31-4.2-0.93c-1.29-0.62-2.42-1.47-3.38-2.54s-1.72-2.29-2.25-3.66
		c-0.53-1.37-0.8-2.81-0.8-4.32c0-1.49,0.27-2.93,0.8-4.32c0.53-1.38,1.29-2.61,2.26-3.69c0.97-1.08,2.11-1.93,3.42-2.56
		S52.87,518.4,54.4,518.4z M62.03,529.78c0-1.42-0.34-2.74-1.02-3.97c-0.68-1.22-1.6-2.21-2.75-2.98c-1.15-0.76-2.43-1.14-3.83-1.14
		c-1.42,0-2.7,0.39-3.82,1.17s-2.02,1.79-2.67,3.04c-0.65,1.25-0.98,2.59-0.98,4.01c0,1.41,0.32,2.73,0.97,3.98s1.52,2.25,2.63,3.02
		c1.11,0.77,2.35,1.15,3.75,1.15c1.41,0,2.7-0.39,3.87-1.18c1.17-0.78,2.11-1.81,2.81-3.08C61.68,532.55,62.03,531.21,62.03,529.78z
		"/>
	<path class="st0" d="M71.81,510.51c0.54,0,0.97,0.18,1.29,0.54c0.31,0.36,0.47,0.74,0.47,1.13v27.91c0,0.38-0.17,0.71-0.52,0.99
		c-0.34,0.28-0.68,0.42-1,0.42c-0.5,0-0.92-0.15-1.26-0.46c-0.34-0.31-0.52-0.7-0.52-1.19v-27.62c0-0.42,0.15-0.82,0.46-1.18
		C71.04,510.69,71.4,510.51,71.81,510.51z"/>
	<path class="st0" d="M80.77,515.06c-0.63,0-1.18-0.23-1.66-0.68s-0.71-1-0.71-1.65c0-0.64,0.24-1.19,0.71-1.65s1.03-0.68,1.66-0.68
		c0.64,0,1.2,0.23,1.67,0.68s0.7,1,0.7,1.65c0,0.65-0.23,1.19-0.7,1.65S81.42,515.06,80.77,515.06z M79.17,519.83
		c0-0.38,0.18-0.71,0.53-1c0.35-0.29,0.68-0.43,0.99-0.43c0.51,0,0.94,0.15,1.27,0.46s0.51,0.71,0.51,1.21l0.04,19.71
		c0,0.45-0.16,0.84-0.48,1.16c-0.32,0.32-0.71,0.48-1.16,0.48s-0.84-0.17-1.16-0.5c-0.32-0.33-0.48-0.72-0.48-1.17L79.17,519.83z"/>
	<path class="st0" d="M91.82,513.81c0-0.45,0.16-0.84,0.48-1.17c0.32-0.32,0.71-0.48,1.16-0.48s0.84,0.16,1.16,0.48
		c0.32,0.32,0.48,0.71,0.48,1.17l-0.02,4.92l4.28,0.02c0.42,0,0.79,0.15,1.09,0.45c0.3,0.3,0.45,0.66,0.45,1.09
		c0,0.43-0.15,0.79-0.45,1.09c-0.3,0.3-0.66,0.45-1.09,0.45l-4.28-0.02l-0.02,13.71c0,0.78,0.12,1.4,0.35,1.88
		c0.23,0.48,0.71,0.71,1.43,0.71c0.64,0,1.18-0.12,1.59-0.36c0.42-0.24,0.9-0.36,1.44-0.36c0.45,0,0.84,0.16,1.16,0.48
		c0.32,0.32,0.48,0.71,0.48,1.17c0,0.62-0.26,1.1-0.79,1.45s-1.15,0.6-1.86,0.74c-0.71,0.14-1.34,0.21-1.9,0.21
		c-1.73,0-3.03-0.55-3.9-1.66c-0.87-1.11-1.31-2.54-1.31-4.3l0.02-13.64h-3.38c-0.42,0-0.79-0.15-1.09-0.45
		c-0.3-0.3-0.45-0.66-0.45-1.09c0-0.42,0.15-0.79,0.45-1.09c0.3-0.3,0.66-0.45,1.09-0.45h3.38L91.82,513.81z"/>
	<path class="st0" d="M116.21,541.36c-2.12,0-4.05-0.53-5.77-1.58c-1.72-1.05-3.09-2.46-4.1-4.23c-1.01-1.77-1.52-3.7-1.52-5.81
		c0-2.01,0.48-3.86,1.44-5.57c0.96-1.71,2.26-3.08,3.9-4.12s3.47-1.56,5.49-1.56c1.86,0,3.57,0.46,5.13,1.38
		c1.56,0.92,2.81,2.16,3.76,3.72c0.94,1.56,1.42,3.29,1.42,5.2c0,0.67-0.12,1.25-0.36,1.74c-0.24,0.48-0.69,0.72-1.33,0.72h-16
		c0.23,1.22,0.71,2.34,1.44,3.37c0.73,1.03,1.64,1.86,2.75,2.49c1.11,0.63,2.34,0.94,3.7,0.94c1.16,0,2.29-0.26,3.41-0.77
		s2.03-1.22,2.75-2.11c0.32-0.42,0.75-0.64,1.3-0.64c0.45,0,0.84,0.16,1.16,0.48s0.48,0.71,0.48,1.16c0,0.4-0.13,0.75-0.4,1.08
		c-1.05,1.29-2.35,2.29-3.88,3.01C119.46,541,117.87,541.36,116.21,541.36z M122.61,528c-0.13-1.14-0.52-2.19-1.16-3.13
		c-0.64-0.95-1.46-1.7-2.46-2.25s-2.09-0.84-3.3-0.84c-1.25,0-2.38,0.29-3.41,0.86s-1.88,1.33-2.56,2.26
		c-0.68,0.94-1.15,1.97-1.4,3.1H122.61z"/>
	<path class="st0" d="M134.21,513.81c0-0.45,0.16-0.84,0.48-1.17c0.32-0.32,0.71-0.48,1.16-0.48s0.84,0.16,1.16,0.48
		c0.32,0.32,0.48,0.71,0.48,1.17l-0.02,4.92l4.28,0.02c0.42,0,0.79,0.15,1.09,0.45c0.3,0.3,0.45,0.66,0.45,1.09
		c0,0.43-0.15,0.79-0.45,1.09c-0.3,0.3-0.66,0.45-1.09,0.45l-4.28-0.02l-0.02,13.71c0,0.78,0.12,1.4,0.35,1.88
		c0.23,0.48,0.71,0.71,1.43,0.71c0.64,0,1.18-0.12,1.59-0.36c0.42-0.24,0.9-0.36,1.44-0.36c0.45,0,0.84,0.16,1.16,0.48
		c0.32,0.32,0.48,0.71,0.48,1.17c0,0.62-0.26,1.1-0.79,1.45s-1.15,0.6-1.86,0.74c-0.71,0.14-1.34,0.21-1.9,0.21
		c-1.73,0-3.03-0.55-3.9-1.66c-0.87-1.11-1.31-2.54-1.31-4.3l0.02-13.64h-3.38c-0.42,0-0.79-0.15-1.09-0.45
		c-0.3-0.3-0.45-0.66-0.45-1.09c0-0.42,0.15-0.79,0.45-1.09c0.3-0.3,0.66-0.45,1.09-0.45h3.38L134.21,513.81z"/>
</g>
<g>
	<path class="st0" d="M222.28,518.36c0.45,0,0.82,0.16,1.11,0.48c0.29,0.32,0.43,0.71,0.43,1.16l0.11,2.62
		c0.53-0.64,1.14-1.29,1.83-1.93c0.7-0.64,1.49-1.18,2.39-1.62c0.9-0.43,1.91-0.65,3.02-0.65c1.95,0,3.51,0.5,4.69,1.49
		c1.18,1,2.04,2.3,2.57,3.92c0.53,1.62,0.8,3.37,0.8,5.24l-0.02,10.66c0,0.45-0.16,0.84-0.48,1.17c-0.32,0.32-0.71,0.48-1.16,0.48
		s-0.84-0.16-1.16-0.49c-0.32-0.33-0.48-0.72-0.48-1.18l0.02-10.63c0-1.3-0.13-2.51-0.4-3.63s-0.74-2.01-1.43-2.7
		c-0.69-0.69-1.67-1.03-2.94-1.03c-2.39,0-4.19,0.64-5.41,1.91c-1.22,1.28-1.82,3.07-1.82,5.38v10.77c0,0.45-0.16,0.84-0.48,1.16
		c-0.32,0.32-0.71,0.48-1.16,0.48s-0.84-0.17-1.16-0.5c-0.32-0.33-0.48-0.72-0.48-1.17l-0.02-19.73c0-0.47,0.16-0.86,0.47-1.19
		C221.42,518.52,221.82,518.36,222.28,518.36z"/>
	<path class="st0" d="M255.46,541.36c-2.12,0-4.05-0.53-5.77-1.58c-1.72-1.05-3.09-2.46-4.1-4.23c-1.01-1.77-1.52-3.7-1.52-5.81
		c0-2.01,0.48-3.86,1.44-5.57c0.96-1.71,2.26-3.08,3.9-4.12s3.47-1.56,5.49-1.56c1.86,0,3.57,0.46,5.13,1.38
		c1.56,0.92,2.81,2.16,3.76,3.72c0.94,1.56,1.42,3.29,1.42,5.2c0,0.67-0.12,1.25-0.36,1.74c-0.24,0.48-0.69,0.72-1.33,0.72h-16
		c0.23,1.22,0.71,2.34,1.44,3.37c0.73,1.03,1.64,1.86,2.75,2.49c1.11,0.63,2.34,0.94,3.7,0.94c1.16,0,2.29-0.26,3.41-0.77
		s2.03-1.22,2.75-2.11c0.32-0.42,0.75-0.64,1.3-0.64c0.45,0,0.84,0.16,1.16,0.48s0.48,0.71,0.48,1.16c0,0.4-0.13,0.75-0.4,1.08
		c-1.05,1.29-2.35,2.29-3.88,3.01C258.71,541,257.12,541.36,255.46,541.36z M261.86,528c-0.13-1.14-0.52-2.19-1.16-3.13
		c-0.64-0.95-1.46-1.7-2.46-2.25s-2.09-0.84-3.3-0.84c-1.25,0-2.38,0.29-3.41,0.86s-1.88,1.33-2.56,2.26
		c-0.68,0.94-1.15,1.97-1.4,3.1H261.86z"/>
	<path class="st0" d="M270.32,540.99c-0.44,0-0.82-0.16-1.15-0.47c-0.33-0.32-0.49-0.69-0.49-1.13s0.15-0.82,0.44-1.14l12.99-16.13
		l-12.26,0.11c-0.28,0-0.57-0.18-0.87-0.53s-0.45-0.67-0.45-0.94c0-0.47,0.14-0.89,0.42-1.26c0.28-0.37,0.69-0.56,1.23-0.56
		l15.89-0.13c0.32,0.04,0.64,0.2,0.97,0.47c0.32,0.27,0.48,0.62,0.48,1.04c0,0.5-0.15,0.91-0.44,1.23l-13.01,16.15h12.26
		c0.32,0,0.63,0.18,0.91,0.55c0.29,0.37,0.43,0.73,0.43,1.1s-0.14,0.73-0.43,1.1c-0.29,0.37-0.59,0.55-0.91,0.55H270.32z
		 M276.73,515.35l-6.66-6.75c-0.31-0.28-0.46-0.64-0.46-1.1c0-0.42,0.15-0.79,0.45-1.09c0.3-0.3,0.66-0.45,1.09-0.45
		c0.45,0,0.83,0.16,1.12,0.48l5.58,5.67l5.89-5.63c0.29-0.29,0.65-0.44,1.08-0.44s0.79,0.15,1.09,0.45c0.3,0.3,0.45,0.66,0.45,1.09
		c0,0.44-0.17,0.81-0.51,1.12l-6.97,6.68c-0.28,0.28-0.64,0.42-1.08,0.42S277.01,515.66,276.73,515.35z"/>
	<path class="st0" d="M293.04,518.36c0.45,0,0.82,0.16,1.11,0.48c0.29,0.32,0.43,0.71,0.43,1.16l0.11,2.62
		c0.53-0.64,1.14-1.29,1.83-1.93c0.7-0.64,1.49-1.18,2.39-1.62c0.9-0.43,1.91-0.65,3.02-0.65c1.95,0,3.51,0.5,4.69,1.49
		c1.18,1,2.04,2.3,2.57,3.92c0.53,1.62,0.8,3.37,0.8,5.24l-0.02,10.66c0,0.45-0.16,0.84-0.48,1.17c-0.32,0.32-0.71,0.48-1.16,0.48
		s-0.84-0.16-1.16-0.49c-0.32-0.33-0.48-0.72-0.48-1.18l0.02-10.63c0-1.3-0.13-2.51-0.4-3.63s-0.74-2.01-1.43-2.7
		c-0.69-0.69-1.67-1.03-2.94-1.03c-2.39,0-4.19,0.64-5.41,1.91c-1.22,1.28-1.82,3.07-1.82,5.38v10.77c0,0.45-0.16,0.84-0.48,1.16
		c-0.32,0.32-0.71,0.48-1.16,0.48s-0.84-0.17-1.16-0.5c-0.32-0.33-0.48-0.72-0.48-1.17l-0.02-19.73c0-0.47,0.16-0.86,0.47-1.19
		C292.18,518.52,292.57,518.36,293.04,518.36z"/>
	<path class="st0" d="M325.8,518.38c1.54,0,2.97,0.31,4.31,0.92s2.5,1.46,3.5,2.54c1,1.08,1.79,2.3,2.35,3.68
		c0.56,1.38,0.85,2.83,0.85,4.37c0,2.04-0.48,3.93-1.45,5.67s-2.27,3.15-3.92,4.23c-1.65,1.08-3.5,1.62-5.55,1.64
		c-2.08,0-3.96-0.54-5.63-1.6s-2.99-2.48-3.97-4.23c-0.97-1.75-1.46-3.65-1.46-5.7c0-1.52,0.28-2.98,0.85-4.36
		c0.56-1.38,1.34-2.62,2.34-3.69c1-1.08,2.16-1.92,3.48-2.54C322.83,518.69,324.26,518.38,325.8,518.38z M325.8,521.68
		c-1.44,0-2.73,0.38-3.89,1.14s-2.08,1.76-2.76,3c-0.68,1.24-1.02,2.58-1.02,4.03c0,1.46,0.34,2.83,1.01,4.09s1.6,2.27,2.77,3.04
		c1.17,0.77,2.49,1.15,3.96,1.15c1.45-0.01,2.75-0.41,3.9-1.17c1.15-0.77,2.06-1.78,2.74-3.02s1.01-2.59,1.01-4.04
		s-0.34-2.8-1.02-4.05c-0.68-1.25-1.6-2.26-2.77-3.02C328.56,522.06,327.25,521.68,325.8,521.68z"/>
	<path class="st0" d="M352.06,518.29c1.96,0,3.75,0.42,5.37,1.27s2.82,2.01,3.59,3.47c0.13,0.23,0.2,0.49,0.2,0.77
		c0,0.44-0.16,0.81-0.47,1.12c-0.32,0.31-0.69,0.46-1.13,0.46c-0.26,0-0.53-0.08-0.81-0.25c-0.28-0.17-0.48-0.37-0.59-0.6
		c-0.53-1-1.33-1.75-2.41-2.27c-1.08-0.52-2.33-0.78-3.77-0.78c-0.91,0-1.9,0.12-2.97,0.36c-1.07,0.24-1.99,0.64-2.76,1.19
		c-0.77,0.55-1.15,1.29-1.15,2.21c0,0.72,0.31,1.27,0.92,1.67s1.38,0.68,2.3,0.87c0.92,0.18,1.85,0.31,2.79,0.38
		c0.94,0.07,1.75,0.15,2.43,0.22c1.33,0.13,2.64,0.37,3.93,0.73s2.36,0.93,3.21,1.74c0.85,0.81,1.27,1.97,1.27,3.49
		c0,1.64-0.48,2.98-1.45,4.03c-0.97,1.05-2.2,1.82-3.71,2.31c-1.51,0.49-3.08,0.74-4.7,0.74c-2.29,0-4.36-0.44-6.22-1.33
		c-1.86-0.89-3.23-2.19-4.11-3.9c-0.12-0.21-0.18-0.45-0.18-0.75c0-0.44,0.15-0.81,0.46-1.12c0.31-0.31,0.68-0.46,1.12-0.46
		c0.28,0,0.56,0.08,0.83,0.25c0.28,0.17,0.48,0.38,0.59,0.63c0.63,1.2,1.6,2.08,2.9,2.65c1.3,0.56,2.83,0.85,4.59,0.85
		c1.01,0,2.03-0.12,3.07-0.36c1.03-0.24,1.9-0.65,2.59-1.22c0.7-0.57,1.04-1.34,1.04-2.31c0-0.76-0.31-1.34-0.94-1.75
		c-0.63-0.4-1.42-0.69-2.37-0.87s-1.92-0.29-2.89-0.35c-0.97-0.06-1.81-0.13-2.52-0.22c-1.25-0.15-2.49-0.4-3.75-0.76
		c-1.25-0.36-2.3-0.94-3.13-1.75c-0.83-0.8-1.25-1.94-1.25-3.41c0-1.23,0.3-2.28,0.91-3.15c0.61-0.87,1.41-1.59,2.39-2.15
		c0.99-0.56,2.08-0.98,3.26-1.24S350.91,518.29,352.06,518.29z"/>
	<path class="st0" d="M370.69,513.81c0-0.45,0.16-0.84,0.48-1.17c0.32-0.32,0.71-0.48,1.16-0.48s0.84,0.16,1.16,0.48
		c0.32,0.32,0.48,0.71,0.48,1.17l-0.02,4.92l4.28,0.02c0.42,0,0.79,0.15,1.09,0.45c0.3,0.3,0.45,0.66,0.45,1.09
		c0,0.43-0.15,0.79-0.45,1.09c-0.3,0.3-0.66,0.45-1.09,0.45l-4.28-0.02l-0.02,13.71c0,0.78,0.12,1.4,0.35,1.88
		c0.23,0.48,0.71,0.71,1.43,0.71c0.64,0,1.18-0.12,1.59-0.36c0.42-0.24,0.9-0.36,1.44-0.36c0.45,0,0.84,0.16,1.16,0.48
		c0.32,0.32,0.48,0.71,0.48,1.17c0,0.62-0.26,1.1-0.79,1.45s-1.15,0.6-1.86,0.74c-0.71,0.14-1.34,0.21-1.9,0.21
		c-1.73,0-3.03-0.55-3.9-1.66c-0.87-1.11-1.31-2.54-1.31-4.3l0.02-13.64h-3.38c-0.42,0-0.79-0.15-1.09-0.45
		c-0.3-0.3-0.45-0.66-0.45-1.09c0-0.42,0.15-0.79,0.45-1.09c0.3-0.3,0.66-0.45,1.09-0.45h3.38L370.69,513.81z"/>
</g>
<g>
	<path class="st0" d="M466.16,518.38c1.54,0,2.97,0.31,4.31,0.92s2.5,1.46,3.5,2.54c1,1.08,1.79,2.3,2.35,3.68
		c0.56,1.38,0.85,2.83,0.85,4.37c0,2.04-0.48,3.93-1.45,5.67s-2.27,3.15-3.92,4.23c-1.65,1.08-3.5,1.62-5.55,1.64
		c-2.08,0-3.96-0.54-5.63-1.6s-2.99-2.48-3.97-4.23c-0.97-1.75-1.46-3.65-1.46-5.7c0-1.52,0.28-2.98,0.85-4.36
		c0.56-1.38,1.34-2.62,2.34-3.69c1-1.08,2.16-1.92,3.48-2.54C463.19,518.69,464.62,518.38,466.16,518.38z M466.16,521.68
		c-1.44,0-2.73,0.38-3.89,1.14s-2.08,1.76-2.76,3c-0.68,1.24-1.02,2.58-1.02,4.03c0,1.46,0.34,2.83,1.01,4.09s1.6,2.27,2.77,3.04
		c1.17,0.77,2.49,1.15,3.96,1.15c1.45-0.01,2.75-0.41,3.9-1.17c1.15-0.77,2.06-1.78,2.74-3.02s1.01-2.59,1.01-4.04
		s-0.34-2.8-1.02-4.05c-0.68-1.25-1.6-2.26-2.77-3.02C468.92,522.06,467.61,521.68,466.16,521.68z"/>
	<path class="st0" d="M485.41,513.81c0-0.45,0.16-0.84,0.48-1.17c0.32-0.32,0.71-0.48,1.16-0.48s0.84,0.16,1.16,0.48
		c0.32,0.32,0.48,0.71,0.48,1.17l-0.02,4.92l4.29,0.02c0.42,0,0.79,0.15,1.09,0.45c0.3,0.3,0.45,0.66,0.45,1.09
		c0,0.43-0.15,0.79-0.45,1.09c-0.3,0.3-0.66,0.45-1.09,0.45l-4.29-0.02l-0.02,13.71c0,0.78,0.12,1.4,0.35,1.88
		c0.23,0.48,0.71,0.71,1.43,0.71c0.64,0,1.18-0.12,1.59-0.36c0.42-0.24,0.9-0.36,1.44-0.36c0.45,0,0.84,0.16,1.17,0.48
		c0.32,0.32,0.48,0.71,0.48,1.17c0,0.62-0.26,1.1-0.79,1.45s-1.15,0.6-1.86,0.74c-0.71,0.14-1.34,0.21-1.9,0.21
		c-1.73,0-3.03-0.55-3.9-1.66c-0.87-1.11-1.31-2.54-1.31-4.3l0.02-13.64H482c-0.42,0-0.79-0.15-1.09-0.45
		c-0.3-0.3-0.45-0.66-0.45-1.09c0-0.42,0.15-0.79,0.45-1.09c0.3-0.3,0.66-0.45,1.09-0.45h3.38L485.41,513.81z"/>
	<path class="st0" d="M515.6,523.1c0.48-0.78,1.08-1.53,1.78-2.26s1.54-1.33,2.5-1.8s2.07-0.7,3.32-0.7c1.86,0,3.34,0.44,4.44,1.33
		c1.1,0.89,1.89,2.1,2.38,3.64c0.49,1.54,0.74,3.28,0.74,5.23l0.02,11.07c0,0.45-0.16,0.84-0.48,1.16
		c-0.32,0.32-0.71,0.48-1.17,0.48c-0.45,0-0.84-0.17-1.16-0.5c-0.32-0.33-0.48-0.72-0.48-1.17l-0.02-11.05
		c0-1.2-0.11-2.32-0.34-3.36c-0.23-1.04-0.65-1.88-1.26-2.53s-1.52-0.97-2.7-0.97c-1.54,0-2.8,0.33-3.78,0.98
		c-0.98,0.65-1.7,1.5-2.15,2.55c-0.46,1.05-0.69,2.16-0.7,3.33l-0.04,11.14c0,0.45-0.16,0.84-0.48,1.16s-0.71,0.48-1.17,0.48
		s-0.84-0.17-1.17-0.49c-0.32-0.33-0.48-0.72-0.48-1.18l-0.02-11.12c0-1.23-0.12-2.37-0.35-3.41c-0.23-1.04-0.67-1.87-1.31-2.5
		s-1.56-0.95-2.76-0.95c-2.09,0-3.71,0.64-4.84,1.92c-1.14,1.28-1.7,2.93-1.7,4.93l-0.02,11.18c0,0.46-0.16,0.84-0.48,1.17
		s-0.71,0.48-1.16,0.48c-0.46,0-0.84-0.17-1.17-0.49c-0.32-0.33-0.48-0.72-0.48-1.18l-0.02-19.78c0.03-0.45,0.2-0.83,0.5-1.13
		c0.31-0.3,0.69-0.45,1.14-0.45c0.47,0,0.85,0.15,1.13,0.45c0.29,0.3,0.42,0.69,0.41,1.15l0.11,2.59c0.37-0.63,0.88-1.27,1.55-1.91
		c0.67-0.64,1.43-1.19,2.29-1.63c0.86-0.44,1.75-0.66,2.69-0.66c1.77,0,3.23,0.48,4.38,1.44
		C514.21,520.74,515.06,521.85,515.6,523.1z"/>
	<path class="st0" d="M547,541.36c-2.12,0-4.05-0.53-5.77-1.58c-1.72-1.05-3.09-2.46-4.1-4.23c-1.01-1.77-1.52-3.7-1.52-5.81
		c0-2.01,0.48-3.86,1.44-5.57c0.96-1.71,2.26-3.08,3.9-4.12s3.47-1.56,5.49-1.56c1.86,0,3.57,0.46,5.13,1.38
		c1.56,0.92,2.81,2.16,3.76,3.72c0.94,1.56,1.42,3.29,1.42,5.2c0,0.67-0.12,1.25-0.36,1.74c-0.24,0.48-0.69,0.72-1.33,0.72h-16
		c0.23,1.22,0.71,2.34,1.44,3.37c0.73,1.03,1.64,1.86,2.75,2.49c1.11,0.63,2.34,0.94,3.7,0.94c1.16,0,2.29-0.26,3.41-0.77
		s2.03-1.22,2.75-2.11c0.32-0.42,0.75-0.64,1.3-0.64c0.45,0,0.84,0.16,1.16,0.48s0.48,0.71,0.48,1.16c0,0.4-0.13,0.75-0.4,1.08
		c-1.05,1.29-2.35,2.29-3.88,3.01C550.25,541,548.65,541.36,547,541.36z M553.39,528c-0.13-1.14-0.52-2.19-1.16-3.13
		c-0.64-0.95-1.46-1.7-2.46-2.25s-2.09-0.84-3.3-0.84c-1.25,0-2.38,0.29-3.41,0.86s-1.88,1.33-2.56,2.26
		c-0.68,0.94-1.15,1.97-1.39,3.1H553.39z"/>
	<path class="st0" d="M563.24,518.36c0.46,0,0.82,0.16,1.11,0.48c0.29,0.32,0.43,0.71,0.43,1.16l0.11,2.62
		c0.53-0.64,1.14-1.29,1.83-1.93c0.7-0.64,1.49-1.18,2.39-1.62c0.9-0.43,1.91-0.65,3.02-0.65c1.95,0,3.51,0.5,4.69,1.49
		c1.18,1,2.04,2.3,2.57,3.92c0.53,1.62,0.8,3.37,0.8,5.24l-0.02,10.66c0,0.45-0.16,0.84-0.48,1.17c-0.32,0.32-0.71,0.48-1.17,0.48
		c-0.45,0-0.84-0.16-1.16-0.49c-0.32-0.33-0.48-0.72-0.48-1.18l0.02-10.63c0-1.3-0.13-2.51-0.4-3.63s-0.74-2.01-1.43-2.7
		c-0.69-0.69-1.67-1.03-2.94-1.03c-2.39,0-4.19,0.64-5.41,1.91c-1.22,1.28-1.82,3.07-1.82,5.38v10.77c0,0.45-0.16,0.84-0.48,1.16
		c-0.32,0.32-0.71,0.48-1.17,0.48s-0.84-0.17-1.17-0.5c-0.32-0.33-0.48-0.72-0.48-1.17l-0.02-19.73c0-0.47,0.16-0.86,0.47-1.19
		C562.38,518.52,562.77,518.36,563.24,518.36z"/>
	<path class="st0" d="M596,518.38c1.54,0,2.97,0.31,4.31,0.92s2.5,1.46,3.5,2.54c1,1.08,1.79,2.3,2.35,3.68s0.85,2.83,0.85,4.37
		c0,2.04-0.48,3.93-1.45,5.67s-2.28,3.15-3.92,4.23c-1.65,1.08-3.5,1.62-5.55,1.64c-2.08,0-3.96-0.54-5.63-1.6s-2.99-2.48-3.97-4.23
		c-0.97-1.75-1.46-3.65-1.46-5.7c0-1.52,0.28-2.98,0.85-4.36c0.56-1.38,1.34-2.62,2.34-3.69c1-1.08,2.16-1.92,3.48-2.54
		C593.03,518.69,594.46,518.38,596,518.38z M596,521.68c-1.44,0-2.73,0.38-3.89,1.14c-1.16,0.76-2.08,1.76-2.76,3
		c-0.68,1.24-1.02,2.58-1.02,4.03c0,1.46,0.34,2.83,1.01,4.09s1.6,2.27,2.77,3.04c1.17,0.77,2.49,1.15,3.96,1.15
		c1.45-0.01,2.75-0.41,3.9-1.17c1.15-0.77,2.06-1.78,2.73-3.02s1.01-2.59,1.01-4.04s-0.34-2.8-1.02-4.05
		c-0.68-1.25-1.61-2.26-2.77-3.02S597.45,521.68,596,521.68z"/>
	<path class="st0" d="M622.26,518.29c1.96,0,3.75,0.42,5.37,1.27c1.62,0.85,2.82,2.01,3.59,3.47c0.13,0.23,0.2,0.49,0.2,0.77
		c0,0.44-0.16,0.81-0.47,1.12s-0.69,0.46-1.13,0.46c-0.26,0-0.54-0.08-0.81-0.25c-0.28-0.17-0.48-0.37-0.59-0.6
		c-0.53-1-1.33-1.75-2.41-2.27c-1.08-0.52-2.33-0.78-3.77-0.78c-0.91,0-1.9,0.12-2.97,0.36c-1.07,0.24-1.99,0.64-2.76,1.19
		c-0.77,0.55-1.15,1.29-1.15,2.21c0,0.72,0.31,1.27,0.92,1.67s1.38,0.68,2.29,0.87c0.92,0.18,1.85,0.31,2.79,0.38
		s1.75,0.15,2.43,0.22c1.33,0.13,2.64,0.37,3.93,0.73s2.36,0.93,3.21,1.74c0.85,0.81,1.27,1.97,1.27,3.49
		c0,1.64-0.48,2.98-1.45,4.03c-0.97,1.05-2.2,1.82-3.71,2.31c-1.51,0.49-3.08,0.74-4.7,0.74c-2.29,0-4.36-0.44-6.22-1.33
		c-1.86-0.89-3.23-2.19-4.11-3.9c-0.12-0.21-0.18-0.45-0.18-0.75c0-0.44,0.15-0.81,0.46-1.12c0.31-0.31,0.68-0.46,1.12-0.46
		c0.28,0,0.56,0.08,0.84,0.25c0.28,0.17,0.48,0.38,0.59,0.63c0.63,1.2,1.6,2.08,2.9,2.65c1.3,0.56,2.83,0.85,4.59,0.85
		c1.01,0,2.03-0.12,3.06-0.36c1.03-0.24,1.9-0.65,2.59-1.22c0.7-0.57,1.04-1.34,1.04-2.31c0-0.76-0.31-1.34-0.95-1.75
		c-0.63-0.4-1.42-0.69-2.37-0.87c-0.95-0.18-1.92-0.29-2.89-0.35c-0.97-0.06-1.81-0.13-2.52-0.22c-1.25-0.15-2.49-0.4-3.75-0.76
		c-1.25-0.36-2.3-0.94-3.13-1.75c-0.83-0.8-1.25-1.94-1.25-3.41c0-1.23,0.3-2.28,0.91-3.15c0.61-0.87,1.41-1.59,2.39-2.15
		c0.99-0.56,2.08-0.98,3.26-1.24S621.11,518.29,622.26,518.29z"/>
	<path class="st0" d="M640.89,513.81c0-0.45,0.16-0.84,0.48-1.17c0.32-0.32,0.71-0.48,1.17-0.48s0.84,0.16,1.17,0.48
		c0.32,0.32,0.48,0.71,0.48,1.17l-0.02,4.92l4.29,0.02c0.42,0,0.79,0.15,1.09,0.45c0.3,0.3,0.45,0.66,0.45,1.09
		c0,0.43-0.15,0.79-0.45,1.09c-0.3,0.3-0.66,0.45-1.09,0.45l-4.29-0.02l-0.02,13.71c0,0.78,0.12,1.4,0.35,1.88
		c0.23,0.48,0.71,0.71,1.43,0.71c0.64,0,1.18-0.12,1.59-0.36c0.42-0.24,0.9-0.36,1.44-0.36c0.45,0,0.84,0.16,1.17,0.48
		c0.32,0.32,0.48,0.71,0.48,1.17c0,0.62-0.26,1.1-0.79,1.45s-1.15,0.6-1.86,0.74c-0.71,0.14-1.34,0.21-1.9,0.21
		c-1.73,0-3.03-0.55-3.9-1.66c-0.87-1.11-1.31-2.54-1.31-4.3l0.02-13.64h-3.38c-0.42,0-0.79-0.15-1.09-0.45
		c-0.3-0.3-0.45-0.66-0.45-1.09c0-0.42,0.15-0.79,0.45-1.09c0.3-0.3,0.66-0.45,1.09-0.45h3.38L640.89,513.81z"/>
</g>
<g>
	<path class="st0" d="M754.81,518.29c1.96,0,3.75,0.42,5.37,1.27s2.82,2.01,3.59,3.47c0.13,0.23,0.2,0.49,0.2,0.77
		c0,0.44-0.16,0.81-0.47,1.12c-0.32,0.31-0.69,0.46-1.13,0.46c-0.26,0-0.53-0.08-0.81-0.25c-0.28-0.17-0.48-0.37-0.59-0.6
		c-0.53-1-1.33-1.75-2.41-2.27c-1.08-0.52-2.33-0.78-3.77-0.78c-0.91,0-1.9,0.12-2.97,0.36c-1.07,0.24-1.99,0.64-2.76,1.19
		c-0.77,0.55-1.15,1.29-1.15,2.21c0,0.72,0.31,1.27,0.92,1.67s1.38,0.68,2.3,0.87c0.92,0.18,1.85,0.31,2.79,0.38
		c0.94,0.07,1.75,0.15,2.43,0.22c1.33,0.13,2.64,0.37,3.93,0.73s2.36,0.93,3.21,1.74c0.85,0.81,1.28,1.97,1.28,3.49
		c0,1.64-0.48,2.98-1.45,4.03c-0.97,1.05-2.2,1.82-3.71,2.31c-1.51,0.49-3.08,0.74-4.7,0.74c-2.29,0-4.36-0.44-6.22-1.33
		c-1.86-0.89-3.23-2.19-4.11-3.9c-0.12-0.21-0.18-0.45-0.18-0.75c0-0.44,0.15-0.81,0.46-1.12c0.31-0.31,0.68-0.46,1.12-0.46
		c0.28,0,0.56,0.08,0.83,0.25c0.28,0.17,0.48,0.38,0.59,0.63c0.63,1.2,1.6,2.08,2.9,2.65c1.3,0.56,2.83,0.85,4.59,0.85
		c1.01,0,2.03-0.12,3.07-0.36c1.03-0.24,1.9-0.65,2.59-1.22c0.7-0.57,1.04-1.34,1.04-2.31c0-0.76-0.32-1.34-0.95-1.75
		c-0.63-0.4-1.42-0.69-2.37-0.87s-1.92-0.29-2.89-0.35c-0.97-0.06-1.81-0.13-2.52-0.22c-1.25-0.15-2.49-0.4-3.75-0.76
		c-1.25-0.36-2.3-0.94-3.13-1.75c-0.83-0.8-1.25-1.94-1.25-3.41c0-1.23,0.3-2.28,0.91-3.15c0.61-0.87,1.41-1.59,2.39-2.15
		c0.99-0.56,2.08-0.98,3.26-1.24C752.5,518.42,753.67,518.29,754.81,518.29z"/>
	<path class="st0" d="M771.97,515.06c-0.63,0-1.18-0.23-1.66-0.68c-0.48-0.45-0.71-1-0.71-1.65c0-0.64,0.24-1.19,0.71-1.65
		c0.48-0.45,1.03-0.68,1.66-0.68c0.64,0,1.2,0.23,1.67,0.68s0.7,1,0.7,1.65c0,0.65-0.23,1.19-0.7,1.65S772.61,515.06,771.97,515.06z
		 M770.36,519.83c0-0.38,0.18-0.71,0.53-1c0.35-0.29,0.68-0.43,0.99-0.43c0.51,0,0.94,0.15,1.27,0.46c0.34,0.31,0.51,0.71,0.51,1.21
		l0.04,19.71c0,0.45-0.16,0.84-0.48,1.16c-0.32,0.32-0.71,0.48-1.16,0.48c-0.46,0-0.84-0.17-1.17-0.5
		c-0.32-0.33-0.48-0.72-0.48-1.17L770.36,519.83z"/>
	<path class="st0" d="M789.85,518.56c1.52,0,2.93,0.38,4.21,1.14c1.28,0.76,2.4,1.66,3.35,2.68l0.11-2.24
		c0-0.45,0.15-0.84,0.44-1.17c0.29-0.32,0.67-0.48,1.12-0.48c0.46,0,0.84,0.16,1.17,0.48c0.32,0.32,0.48,0.71,0.48,1.17l-0.02,0.04
		l-0.15,20.74c-0.01,1.57-0.33,3.05-0.96,4.44c-0.62,1.39-1.48,2.62-2.56,3.68c-1.08,1.06-2.33,1.89-3.74,2.49
		c-1.41,0.6-2.9,0.9-4.48,0.9c-1.77,0-3.47-0.39-5.1-1.18c-1.63-0.78-3-1.87-4.11-3.26c-0.25-0.31-0.37-0.66-0.37-1.05
		c0-0.45,0.16-0.84,0.48-1.17s0.71-0.48,1.16-0.48c0.56,0,1,0.22,1.32,0.66c0.78,0.98,1.76,1.76,2.96,2.33
		c1.19,0.57,2.41,0.86,3.66,0.86c1.52,0,2.92-0.38,4.19-1.13c1.27-0.75,2.29-1.76,3.05-3.01c0.77-1.25,1.17-2.63,1.2-4.12l0.02-3.3
		c-0.97,0.98-2.09,1.86-3.37,2.65c-1.28,0.78-2.63,1.18-4.05,1.18c-1.51,0-2.91-0.31-4.21-0.93c-1.3-0.62-2.43-1.47-3.39-2.54
		s-1.72-2.29-2.26-3.66c-0.54-1.37-0.81-2.8-0.81-4.3s0.27-2.92,0.8-4.28c0.54-1.36,1.29-2.58,2.25-3.66
		c0.97-1.08,2.1-1.93,3.4-2.55C786.92,518.87,788.33,518.56,789.85,518.56z M797.21,529.98c0-1.42-0.32-2.75-0.96-3.98
		c-0.64-1.23-1.51-2.23-2.63-3c-1.11-0.77-2.37-1.15-3.78-1.15c-1.42,0-2.68,0.38-3.79,1.15c-1.11,0.77-1.98,1.77-2.62,3
		s-0.96,2.56-0.96,3.98c0,1.41,0.32,2.73,0.97,3.97c0.64,1.24,1.52,2.24,2.63,3.01c1.11,0.77,2.36,1.15,3.77,1.15
		s2.66-0.38,3.77-1.15c1.11-0.77,1.98-1.77,2.63-3.01C796.89,532.71,797.21,531.39,797.21,529.98z"/>
	<path class="st0" d="M822.97,541.5c-0.45,0-0.82-0.16-1.11-0.48c-0.29-0.32-0.43-0.71-0.43-1.16l-0.11-2.62
		c-0.53,0.64-1.14,1.29-1.83,1.93c-0.7,0.64-1.49,1.18-2.4,1.62c-0.9,0.43-1.91,0.65-3.02,0.65c-1.95,0-3.51-0.5-4.69-1.49
		c-1.18-1-2.04-2.3-2.57-3.92c-0.53-1.62-0.8-3.37-0.8-5.24l0.02-10.66c0-0.45,0.16-0.84,0.48-1.16s0.71-0.48,1.16-0.48
		s0.84,0.17,1.16,0.49c0.32,0.33,0.48,0.72,0.48,1.18l-0.02,10.63c0,1.3,0.13,2.51,0.4,3.63s0.74,2.01,1.43,2.7
		c0.69,0.69,1.67,1.03,2.95,1.03c2.39,0,4.19-0.64,5.4-1.91c1.22-1.27,1.82-3.07,1.82-5.38v-10.77c0-0.45,0.16-0.84,0.48-1.17
		s0.71-0.48,1.17-0.48c0.45,0,0.84,0.17,1.16,0.49c0.32,0.33,0.48,0.72,0.48,1.18l0.02,19.73c0,0.47-0.16,0.86-0.47,1.19
		C823.83,541.33,823.44,541.5,822.97,541.5z"/>
	<path class="st0" d="M842.83,520.51c0,0.39-0.13,0.76-0.4,1.1c-0.26,0.34-0.55,0.51-0.86,0.51c-0.46,0-0.88-0.11-1.29-0.32
		c-0.4-0.21-0.89-0.32-1.46-0.32c-1.44,0-2.56,0.31-3.38,0.92s-1.4,1.4-1.75,2.36c-0.35,0.96-0.52,1.97-0.52,3.04v11.97
		c0,0.45-0.13,0.85-0.41,1.18c-0.27,0.33-0.68,0.49-1.24,0.49c-0.54,0-0.95-0.17-1.23-0.49c-0.28-0.33-0.42-0.72-0.42-1.18v-19.49
		c0-0.54,0.18-0.98,0.54-1.32c0.36-0.34,0.74-0.5,1.15-0.5c0.42,0,0.77,0.17,1.04,0.49c0.27,0.33,0.41,0.77,0.41,1.33l0.2,2.42
		c0.21-0.67,0.59-1.34,1.15-2c0.56-0.66,1.23-1.21,2-1.66c0.77-0.45,1.55-0.67,2.34-0.67c1.13,0,2.1,0.15,2.9,0.45
		C842.43,519.13,842.83,519.69,842.83,520.51z"/>
	<path class="st0" d="M849.09,513.81c0-0.45,0.16-0.84,0.48-1.17c0.32-0.32,0.71-0.48,1.16-0.48s0.84,0.16,1.16,0.48
		c0.32,0.32,0.48,0.71,0.48,1.17l-0.02,4.92l4.28,0.02c0.43,0,0.79,0.15,1.09,0.45c0.3,0.3,0.45,0.66,0.45,1.09
		c0,0.43-0.15,0.79-0.45,1.09c-0.3,0.3-0.66,0.45-1.09,0.45l-4.28-0.02l-0.02,13.71c0,0.78,0.12,1.4,0.35,1.88
		c0.23,0.48,0.71,0.71,1.43,0.71c0.64,0,1.18-0.12,1.59-0.36c0.42-0.24,0.9-0.36,1.44-0.36c0.45,0,0.84,0.16,1.16,0.48
		c0.32,0.32,0.48,0.71,0.48,1.17c0,0.62-0.26,1.1-0.79,1.45s-1.15,0.6-1.86,0.74c-0.71,0.14-1.34,0.21-1.9,0.21
		c-1.73,0-3.03-0.55-3.9-1.66c-0.87-1.11-1.31-2.54-1.31-4.3l0.02-13.64h-3.38c-0.42,0-0.79-0.15-1.09-0.45
		c-0.3-0.3-0.45-0.66-0.45-1.09c0-0.42,0.15-0.79,0.45-1.09c0.3-0.3,0.66-0.45,1.09-0.45h3.38L849.09,513.81z"/>
	<path class="st0" d="M864.19,518.36c0.45,0,0.82,0.16,1.11,0.48s0.43,0.71,0.43,1.16l0.11,2.62c0.53-0.64,1.14-1.29,1.83-1.93
		s1.49-1.18,2.39-1.62c0.9-0.43,1.91-0.65,3.02-0.65c1.95,0,3.51,0.5,4.69,1.49s2.04,2.3,2.57,3.92c0.54,1.62,0.8,3.37,0.8,5.24
		l-0.02,10.66c0,0.45-0.16,0.84-0.48,1.17c-0.32,0.32-0.71,0.48-1.16,0.48s-0.84-0.16-1.16-0.49c-0.32-0.33-0.48-0.72-0.48-1.18
		l0.02-10.63c0-1.3-0.13-2.51-0.4-3.63s-0.74-2.01-1.43-2.7c-0.69-0.69-1.67-1.03-2.95-1.03c-2.39,0-4.19,0.64-5.4,1.91
		c-1.22,1.28-1.82,3.07-1.82,5.38v10.77c0,0.45-0.16,0.84-0.48,1.16c-0.32,0.32-0.71,0.48-1.17,0.48c-0.45,0-0.84-0.17-1.16-0.5
		c-0.32-0.33-0.48-0.72-0.48-1.17l-0.02-19.73c0-0.47,0.16-0.86,0.47-1.19S863.72,518.36,864.19,518.36z"/>
	<path class="st0" d="M896.95,518.38c1.54,0,2.97,0.31,4.31,0.92c1.33,0.62,2.5,1.46,3.5,2.54c1,1.08,1.79,2.3,2.35,3.68
		c0.56,1.38,0.85,2.83,0.85,4.37c0,2.04-0.48,3.93-1.45,5.67s-2.27,3.15-3.92,4.23c-1.65,1.08-3.5,1.62-5.55,1.64
		c-2.08,0-3.96-0.54-5.63-1.6s-2.99-2.48-3.97-4.23c-0.97-1.75-1.46-3.65-1.46-5.7c0-1.52,0.28-2.98,0.85-4.36
		c0.56-1.38,1.34-2.62,2.34-3.69c1-1.08,2.16-1.92,3.48-2.54C893.98,518.69,895.41,518.38,896.95,518.38z M896.95,521.68
		c-1.44,0-2.73,0.38-3.89,1.14s-2.08,1.76-2.76,3c-0.68,1.24-1.02,2.58-1.02,4.03c0,1.46,0.34,2.83,1.01,4.09s1.6,2.27,2.77,3.04
		c1.17,0.77,2.49,1.15,3.96,1.15c1.45-0.01,2.75-0.41,3.9-1.17c1.15-0.77,2.06-1.78,2.74-3.02s1.01-2.59,1.01-4.04
		s-0.34-2.8-1.02-4.05c-0.68-1.25-1.6-2.26-2.77-3.02C899.71,522.06,898.4,521.68,896.95,521.68z"/>
	<path class="st0" d="M923.21,518.29c1.96,0,3.75,0.42,5.37,1.27s2.82,2.01,3.59,3.47c0.13,0.23,0.2,0.49,0.2,0.77
		c0,0.44-0.16,0.81-0.47,1.12c-0.32,0.31-0.69,0.46-1.13,0.46c-0.26,0-0.53-0.08-0.81-0.25c-0.28-0.17-0.48-0.37-0.59-0.6
		c-0.53-1-1.33-1.75-2.41-2.27c-1.08-0.52-2.33-0.78-3.77-0.78c-0.91,0-1.9,0.12-2.97,0.36c-1.07,0.24-1.99,0.64-2.76,1.19
		c-0.77,0.55-1.15,1.29-1.15,2.21c0,0.72,0.31,1.27,0.92,1.67s1.38,0.68,2.3,0.87c0.92,0.18,1.85,0.31,2.79,0.38
		c0.94,0.07,1.75,0.15,2.43,0.22c1.33,0.13,2.64,0.37,3.93,0.73s2.36,0.93,3.21,1.74c0.85,0.81,1.28,1.97,1.28,3.49
		c0,1.64-0.48,2.98-1.45,4.03c-0.97,1.05-2.2,1.82-3.71,2.31c-1.51,0.49-3.08,0.74-4.7,0.74c-2.29,0-4.36-0.44-6.22-1.33
		c-1.86-0.89-3.23-2.19-4.11-3.9c-0.12-0.21-0.18-0.45-0.18-0.75c0-0.44,0.15-0.81,0.46-1.12c0.31-0.31,0.68-0.46,1.12-0.46
		c0.28,0,0.56,0.08,0.83,0.25c0.28,0.17,0.48,0.38,0.59,0.63c0.63,1.2,1.6,2.08,2.9,2.65c1.3,0.56,2.83,0.85,4.59,0.85
		c1.01,0,2.03-0.12,3.07-0.36c1.03-0.24,1.9-0.65,2.59-1.22c0.7-0.57,1.04-1.34,1.04-2.31c0-0.76-0.32-1.34-0.95-1.75
		c-0.63-0.4-1.42-0.69-2.37-0.87s-1.92-0.29-2.89-0.35c-0.97-0.06-1.81-0.13-2.52-0.22c-1.25-0.15-2.49-0.4-3.75-0.76
		c-1.25-0.36-2.3-0.94-3.13-1.75c-0.83-0.8-1.25-1.94-1.25-3.41c0-1.23,0.3-2.28,0.91-3.15c0.61-0.87,1.41-1.59,2.39-2.15
		c0.99-0.56,2.08-0.98,3.26-1.24C920.9,518.42,922.06,518.29,923.21,518.29z"/>
	<path class="st0" d="M941.84,513.81c0-0.45,0.16-0.84,0.48-1.17c0.32-0.32,0.71-0.48,1.16-0.48c0.46,0,0.84,0.16,1.17,0.48
		c0.32,0.32,0.48,0.71,0.48,1.17l-0.02,4.92l4.28,0.02c0.42,0,0.79,0.15,1.09,0.45c0.3,0.3,0.45,0.66,0.45,1.09
		c0,0.43-0.15,0.79-0.45,1.09c-0.3,0.3-0.66,0.45-1.09,0.45l-4.28-0.02l-0.02,13.71c0,0.78,0.12,1.4,0.35,1.88
		c0.23,0.48,0.71,0.71,1.43,0.71c0.64,0,1.18-0.12,1.59-0.36c0.42-0.24,0.9-0.36,1.44-0.36c0.46,0,0.84,0.16,1.17,0.48
		c0.32,0.32,0.48,0.71,0.48,1.17c0,0.62-0.26,1.1-0.79,1.45s-1.15,0.6-1.86,0.74c-0.71,0.14-1.34,0.21-1.9,0.21
		c-1.73,0-3.03-0.55-3.9-1.66c-0.87-1.11-1.31-2.54-1.31-4.3l0.02-13.64h-3.38c-0.43,0-0.79-0.15-1.09-0.45
		c-0.3-0.3-0.45-0.66-0.45-1.09c0-0.42,0.15-0.79,0.45-1.09c0.3-0.3,0.66-0.45,1.09-0.45h3.38L941.84,513.81z"/>
</g>
<path class="st0" d="M45.29,82.11L1,82.11c-0.55,0-1-0.45-1-1h0c0-0.55,0.45-1,1-1l44.29,0c0.55,0,1,0.45,1,1l0,0
	C46.29,81.66,45.84,82.11,45.29,82.11z"/>
<path class="st0" d="M919.29,82.13L236,82.11c-0.55,0-1-0.45-1-1v-0.01c0-0.55,0.45-1,1-1l683.29,0.01c0.55,0,1,0.45,1,1v0.01
	C920.29,81.68,919.84,82.13,919.29,82.13z"/>
<g>
	<path class="st1" d="M186.31,39.59c-2.13,0.46-3.9,2.12-4.47,4.23c-0.51,1.84-0.14,3.58,0.75,4.95l-12.66,8.19
		c0.23,0.35,0.37,0.77,0.37,1.23c0,1.25-1.01,2.26-2.26,2.26s-2.26-1.01-2.26-2.26s1.01-2.26,2.26-2.26V37.26
		c4.45,0,7.94-4.11,6.88-8.74c-0.58-2.56-2.66-4.63-5.22-5.22c-4.63-1.06-8.74,2.43-8.74,6.88c0,1.94,0.79,3.7,2.05,4.98
		l-11.63,11.54c0.41,0.41,0.66,0.97,0.66,1.59c0,1.25-1.01,2.26-2.26,2.26c-1.25,0-2.26-1.01-2.26-2.26c0-1,0.65-1.83,1.54-2.14
		l-10.28-30.43c3.67-1.24,6.19-5,5.36-9.26c-0.6-3.11-3.08-5.64-6.18-6.3c-5.24-1.11-9.87,2.86-9.87,7.91
		c0,3.57,2.32,6.56,5.52,7.64l-10.28,30.43c0.89,0.3,1.54,1.14,1.54,2.14c0,1.25-1.01,2.26-2.26,2.26c-1.25,0-2.26-1.01-2.26-2.26
		c0-0.62,0.25-1.19,0.66-1.59l-11.63-11.54c1.51-1.52,2.34-3.72,1.97-6.11c-0.47-3.07-3.05-5.53-6.13-5.89
		c-4.29-0.5-7.93,2.83-7.93,7.02c0,3.91,3.17,7.07,7.07,7.07v18.66c1.25,0,2.26,1.01,2.26,2.26s-1.01,2.26-2.26,2.26
		c-1.25,0-2.26-1.01-2.26-2.26c0-0.45,0.14-0.87,0.37-1.23L89.8,48.77c0.89-1.37,1.25-3.11,0.75-4.95c-0.58-2.1-2.34-3.77-4.47-4.22
		c-4.02-0.86-7.55,2.27-7.38,6.18c0.09,2.06,1.4,3.89,3.19,4.94c1.81,1.06,3.42,0.96,4.83,0.47l9.64,27.66
		c0.89,2.55,1.61,5.14,2.19,7.77h75.3c0.57-2.63,1.3-5.22,2.19-7.77l9.64-27.66c1.41,0.49,3.01,0.6,4.82-0.46
		c1.79-1.04,3.1-2.87,3.2-4.93C193.87,41.87,190.33,38.73,186.31,39.59z M118.64,69.94c-1.55,0.39-3.45-1.88-4.25-5.07
		c-0.8-3.19-0.2-6.09,1.35-6.48c1.55-0.39,3.45,1.88,4.25,5.07C120.79,66.65,120.18,69.55,118.64,69.94z M136.19,69.85
		c-2.43,0-4.39-4.05-4.39-9.06c0-5,1.97-9.06,4.39-9.06c2.42,0,4.39,4.05,4.39,9.06C140.58,65.79,138.61,69.85,136.19,69.85z
		 M157.99,64.87c-0.8,3.19-2.71,5.46-4.25,5.07c-1.55-0.39-2.15-3.29-1.35-6.48c0.8-3.19,2.71-5.46,4.25-5.07
		C158.19,58.79,158.79,61.69,157.99,64.87z"/>
	<path class="st1" d="M99.52,92.2c0.38,2.92,0.59,5.86,0.59,8.81v0.12h72.17v-0.12c0-2.95,0.2-5.9,0.59-8.81H99.52z"/>
</g>
</svg>
