<?xml version="1.0" encoding="utf-8"?>
<!-- Generator: Adobe Illustrator 23.0.3, SVG Export Plug-In . SVG Version: 6.00 Build 0)  -->
<svg version="1.1" id="Layer_1" xmlns="http://www.w3.org/2000/svg" xmlns:xlink="http://www.w3.org/1999/xlink" x="0px" y="0px"
	 viewBox="0 0 104.72 127.48" style="enable-background:new 0 0 104.72 127.48;" xml:space="preserve">
<style type="text/css">
	.st0{fill:#E6C884;}
</style>
<g>
	<g>
		<path class="st0" d="M83.53,8.35c-1.19-0.69-2.72-0.28-3.41,0.91c-0.69,1.19-0.28,2.72,0.91,3.41c1.19,0.69,2.72,0.28,3.41-0.91
			C85.13,10.56,84.72,9.04,83.53,8.35z"/>
	</g>
</g>
<g>
	<g>
		<path class="st0" d="M52.36,0c-1.38,0-2.49,1.12-2.49,2.49s1.12,2.49,2.49,2.49c1.38,0,2.49-1.12,2.49-2.49
			C54.85,1.12,53.74,0,52.36,0z"/>
	</g>
</g>
<g>
	<g>
		<path class="st0" d="M52.36,66.32c-1.38,0-2.49,1.12-2.49,2.49c0,1.38,1.12,2.49,2.49,2.49c1.38,0,2.49-1.12,2.49-2.49
			C54.85,67.44,53.74,66.32,52.36,66.32z"/>
	</g>
</g>
<g>
	<g>
		<path class="st0" d="M24.6,9.26c-0.69-1.19-2.21-1.6-3.41-0.91c-1.19,0.69-1.6,2.21-0.91,3.41c0.69,1.19,2.21,1.6,3.41,0.91
			C24.88,11.98,25.29,10.46,24.6,9.26z"/>
	</g>
</g>
<g>
	<g>
		<path class="st0" d="M52.36,9.97c-1.38,0-2.49,1.12-2.49,2.49v9.97c0,1.38,1.12,2.49,2.49,2.49s2.49-1.12,2.49-2.49v-9.97
			C54.85,11.09,53.74,9.97,52.36,9.97z"/>
	</g>
</g>
<g>
	<g>
		<path class="st0" d="M34.57,26.54l-4.99-8.64c-0.69-1.19-2.21-1.6-3.41-0.91c-1.19,0.69-1.6,2.21-0.91,3.41l4.99,8.64
			c0.46,0.8,1.3,1.25,2.16,1.25c0.42,0,0.85-0.11,1.24-0.33C34.85,29.26,35.26,27.73,34.57,26.54z"/>
	</g>
</g>
<g>
	<g>
		<path class="st0" d="M78.54,16.99c-1.19-0.69-2.72-0.28-3.41,0.91l-4.99,8.64c-0.69,1.19-0.28,2.72,0.91,3.41
			c0.39,0.23,0.82,0.33,1.24,0.33c0.86,0,1.7-0.45,2.16-1.25l4.99-8.64C80.14,19.2,79.73,17.68,78.54,16.99z"/>
	</g>
</g>
<g>
	<path class="st0" d="M104.72,68.8c0-0.03,0-0.06,0-0.09c0-0.03,0-0.06-0.01-0.1c0-0.02,0-0.04,0-0.06c0-0.03-0.01-0.06-0.01-0.08
		c0-0.03-0.01-0.06-0.02-0.09c0-0.02-0.01-0.05-0.01-0.07s-0.01-0.05-0.02-0.07c-0.01-0.03-0.02-0.06-0.03-0.1
		c-0.01-0.03-0.01-0.05-0.02-0.08c-0.01-0.02-0.01-0.04-0.02-0.05c-0.01-0.03-0.02-0.07-0.04-0.1c-0.01-0.03-0.02-0.05-0.03-0.08
		c-0.01-0.01-0.01-0.03-0.02-0.04c-0.02-0.04-0.03-0.07-0.05-0.1c-0.01-0.03-0.03-0.05-0.04-0.08c0,0,0-0.01-0.01-0.01L89.46,41.16
		c-0.01-0.01-0.02-0.02-0.02-0.04c-0.04-0.07-0.09-0.14-0.14-0.21c-0.01-0.02-0.02-0.04-0.04-0.05c-0.06-0.08-0.13-0.16-0.2-0.23
		c0,0,0,0,0,0c-0.07-0.07-0.14-0.13-0.22-0.19c-0.02-0.02-0.04-0.03-0.06-0.04c-0.06-0.05-0.13-0.09-0.19-0.13
		c-0.02-0.01-0.04-0.03-0.06-0.04c-0.08-0.05-0.17-0.09-0.26-0.13c0,0,0,0,0,0c0,0,0,0,0,0c-0.09-0.04-0.19-0.07-0.28-0.1
		c-0.03-0.01-0.05-0.01-0.08-0.02c-0.07-0.02-0.15-0.03-0.22-0.05c-0.03,0-0.05-0.01-0.08-0.01c-0.1-0.01-0.2-0.02-0.3-0.02
		c0,0,0,0,0,0h0c0,0-0.01,0-0.01,0H52.36h-0.01h-34.9c-0.1,0-0.21,0.01-0.31,0.02c-0.02,0-0.05,0.01-0.07,0.01
		c-0.08,0.01-0.15,0.03-0.23,0.05c-0.03,0.01-0.06,0.01-0.08,0.02c-0.08,0.02-0.16,0.05-0.24,0.08c-0.01,0.01-0.03,0.01-0.04,0.01
		c0,0,0,0-0.01,0c-0.09,0.04-0.18,0.08-0.26,0.13c-0.02,0.01-0.04,0.03-0.06,0.04c-0.07,0.04-0.13,0.08-0.19,0.13
		c-0.02,0.02-0.04,0.03-0.06,0.05c-0.07,0.06-0.14,0.11-0.2,0.17c-0.01,0.01-0.02,0.02-0.02,0.02c-0.07,0.07-0.14,0.15-0.2,0.23
		c-0.01,0.02-0.02,0.03-0.03,0.05c-0.05,0.07-0.09,0.14-0.14,0.21c-0.01,0.01-0.02,0.02-0.02,0.04L0.35,67.53c0,0,0,0,0,0
		l-0.03,0.05c0,0,0,0.01-0.01,0.01c-0.02,0.03-0.03,0.06-0.04,0.08c-0.02,0.04-0.04,0.07-0.05,0.11c0,0.01-0.01,0.02-0.02,0.03
		c-0.01,0.03-0.02,0.06-0.03,0.09c-0.01,0.03-0.03,0.07-0.04,0.1c-0.01,0.01-0.01,0.03-0.02,0.04c-0.01,0.03-0.02,0.06-0.02,0.08
		c-0.01,0.03-0.02,0.07-0.03,0.1c0,0.02-0.01,0.04-0.01,0.06c-0.01,0.03-0.01,0.05-0.01,0.08c-0.01,0.03-0.01,0.06-0.02,0.1
		c0,0.02-0.01,0.05-0.01,0.07c0,0.02,0,0.05,0,0.07c0,0.03-0.01,0.07-0.01,0.1c0,0.03,0,0.05,0,0.08c0,0.01,0,0.01,0,0.02
		c0,0.02,0,0.03,0,0.05c0,0.03,0,0.07,0,0.1c0,0.03,0,0.05,0.01,0.08c0,0.02,0,0.05,0.01,0.07c0,0.03,0.01,0.06,0.01,0.09
		c0,0.02,0.01,0.05,0.01,0.07c0,0.03,0.01,0.05,0.02,0.08c0.01,0.03,0.01,0.06,0.02,0.09c0.01,0.02,0.01,0.04,0.02,0.07
		c0.01,0.03,0.02,0.05,0.02,0.08c0.01,0.03,0.02,0.06,0.03,0.08c0.01,0.02,0.02,0.04,0.02,0.06c0.01,0.03,0.02,0.05,0.03,0.08
		c0.01,0.03,0.02,0.05,0.04,0.08c0.01,0.02,0.02,0.05,0.03,0.07c0.01,0.02,0.03,0.05,0.04,0.07c0.01,0.02,0.03,0.04,0.04,0.07
		c0.01,0.02,0.03,0.05,0.05,0.07c0.01,0.02,0.03,0.04,0.05,0.07c0.01,0.02,0.03,0.04,0.04,0.06c0.02,0.02,0.04,0.05,0.06,0.07
		c0.02,0.02,0.04,0.04,0.05,0.06c0.01,0.01,0.02,0.03,0.03,0.04l50.18,56.17c0.06,0.07,0.13,0.13,0.2,0.19
		c0.01,0.01,0.02,0.02,0.03,0.02c0.07,0.06,0.15,0.12,0.23,0.17c0.03,0.02,0.05,0.03,0.08,0.05c0.07,0.05,0.15,0.09,0.22,0.13
		c0.02,0.01,0.04,0.02,0.06,0.03c0.1,0.04,0.2,0.08,0.3,0.11c0.02,0.01,0.05,0.01,0.07,0.02c0.08,0.02,0.17,0.04,0.25,0.06
		c0.03,0.01,0.06,0.01,0.09,0.01c0.11,0.01,0.22,0.02,0.33,0.02c0,0,0.01,0,0.01,0c0.11,0,0.22-0.01,0.33-0.03
		c0.03,0,0.06-0.01,0.09-0.02c0.08-0.01,0.17-0.03,0.25-0.06c0.02-0.01,0.05-0.01,0.07-0.02c0.1-0.03,0.2-0.07,0.3-0.12
		c0.02-0.01,0.04-0.02,0.06-0.03c0.08-0.04,0.15-0.08,0.22-0.13c0.03-0.02,0.05-0.03,0.08-0.05c0.08-0.05,0.15-0.11,0.22-0.17
		c0.01-0.01,0.02-0.02,0.03-0.03c0.07-0.06,0.13-0.13,0.2-0.2l49.56-56.17c0.01-0.01,0.02-0.02,0.02-0.03
		c0.02-0.02,0.03-0.04,0.05-0.06c0.02-0.03,0.04-0.05,0.06-0.08c0.01-0.02,0.03-0.04,0.04-0.06c0.01-0.02,0.03-0.04,0.04-0.06
		c0.02-0.03,0.03-0.05,0.05-0.08c0.01-0.02,0.03-0.04,0.04-0.07c0.01-0.02,0.02-0.04,0.03-0.07c0.01-0.02,0.02-0.05,0.04-0.07
		c0.01-0.03,0.03-0.05,0.04-0.08c0.01-0.02,0.02-0.05,0.03-0.07c0.01-0.02,0.02-0.05,0.03-0.07c0.01-0.03,0.02-0.06,0.03-0.09
		c0.01-0.02,0.01-0.05,0.02-0.07c0.01-0.02,0.01-0.05,0.02-0.07c0.01-0.03,0.02-0.06,0.02-0.09c0-0.02,0.01-0.05,0.01-0.07
		c0-0.03,0.01-0.05,0.01-0.08c0-0.03,0.01-0.06,0.01-0.09c0-0.02,0-0.04,0.01-0.06c0-0.03,0-0.06,0.01-0.09c0-0.03,0-0.06,0-0.1
		c0-0.01,0-0.03,0-0.04C104.72,68.81,104.72,68.81,104.72,68.8z M83.54,44.88l-8.08,19.29L57.98,44.88H83.54z M46.78,44.88
		L29.46,64.2l-8.24-19.32H46.78z M17.14,48.01l7.81,18.32H6.77L17.14,48.01z M8.06,71.31h19.01l17.36,40.71L8.06,71.31z
		 M52.65,118.59L32.49,71.31h9.89c1.38,0,2.49-1.12,2.49-2.49s-1.12-2.49-2.49-2.49h-8.13l18.11-20.21l18.31,20.21h-8.34
		c-1.38,0-2.49,1.12-2.49,2.49s1.12,2.49,2.49,2.49h10.13L52.65,118.59z M60.83,111.97l17.04-40.66H96.7L60.83,111.97z M79.96,66.32
		l7.66-18.28l10.33,18.28H79.96z"/>
</g>
</svg>
