<?xml version="1.0" encoding="utf-8"?>
<!-- Generator: Adobe Illustrator 23.0.3, SVG Export Plug-In . SVG Version: 6.00 Build 0)  -->
<svg version="1.1" id="Layer_1" xmlns="http://www.w3.org/2000/svg" xmlns:xlink="http://www.w3.org/1999/xlink" x="0px" y="0px"
	 viewBox="0 0 109.51 65.47" style="enable-background:new 0 0 109.51 65.47;" xml:space="preserve">
<style type="text/css">
	.st0{fill:#FFFFFF;}
</style>
<g>
	<path class="st0" d="M87.54,35.89c-2.11-4.82-5.1-9.84-5.05-10.88c0,0-0.27-1.81,0.78-2.34c1.05-0.53,2.68-0.96,0.06-1.11
		c-9.2,1.98-32.26-10.14-33.21-12.2c-0.84-0.83-0.87-0.35-1.15-0.21c-0.39,0.21-0.38,1.28-0.38,1.28s2.25,2.71-4.25,10.67
		C37.84,29.07,38,34.11,38,34.11s0.99,2.8,7.14,7.7c0.22-0.19,0.44-0.35,0.67-0.49c0.23-0.14,0.49-0.25,0.76-0.35
		c-3-3.89-6.34-10.21-2.25-15.69c6.45-8.63,7.91-9.53,8.42-10.31c0.04-0.8,9.53,4.72,13.51,13.14l1.21,0.07
		c0,0,4.15-5.08,11.14-2.79c2.18,0.91,5.74,9,5.23,14.73c0,0-0.76,4.05-3.39,4.46c-2.63,0.41-2.63,0.41-2.63,0.41
		s3.49,1.35,6.58-0.12C85.8,44.16,89.65,40.71,87.54,35.89z"/>
</g>
<path class="st0" d="M65.28,30.57c0,0,4.17,5.93-1.63,12.33c0.13-2.32,0.31-4.01-1.74-6.3C64.57,31.82,65.28,30.57,65.28,30.57z"/>
<path class="st0" d="M80.59,9.84c-0.15-0.47-0.65-0.74-1.12-0.59C79,9.4,78.75,9.9,78.9,10.38c0.02,0.05,0.04,0.1,0.06,0.14
	c-0.19,0.16-0.41,0.34-0.65,0.54c0.01-0.04,0.01-0.08,0-0.13l-0.03-0.19l-0.18-0.06c-0.08-0.03-0.21-0.04-0.34,0.07l-0.03,0.03
	c-0.78,0.65-2.15,1.54-3.37,1.76c0.07-0.23,0.31-0.89,0.6-1.36c0.1-0.01,0.19-0.04,0.28-0.08c0.2-0.1,0.34-0.27,0.42-0.48
	c0.07-0.21,0.06-0.43-0.03-0.63c-0.1-0.2-0.27-0.36-0.48-0.43l0,0c-0.43-0.15-0.91,0.09-1.06,0.52c-0.03,0.1-0.05,0.2-0.05,0.3
	c-0.4,0.35-1.14,0.91-1.54,1.06l-0.01,0c-0.32-1.72,0.37-5.27,1.39-8.68c0.62-0.3,0.95-1.05,0.73-1.74
	c-0.24-0.76-1.05-1.19-1.79-0.95c-0.75,0.24-1.15,1.05-0.91,1.82c0.03,0.08,0.06,0.16,0.1,0.24c-1.31,3.36-2.99,6.61-4.31,7.73
	l-0.06-0.1c-0.22-0.36-0.46-1.26-0.56-1.78c0.06-0.08,0.12-0.17,0.15-0.26c0.15-0.44-0.08-0.91-0.51-1.06
	c-0.21-0.07-0.44-0.06-0.64,0.04c-0.2,0.1-0.34,0.27-0.42,0.48c-0.07,0.21-0.06,0.43,0.03,0.63c0.04,0.09,0.1,0.17,0.17,0.24
	c-0.06,0.5-0.25,1.1-0.35,1.37c-0.77-0.94-1.27-2.41-1.48-3.36l-0.01-0.04C64,5.84,63.89,5.78,63.81,5.75l-0.18-0.06l-0.14,0.13
	c-0.04,0.03-0.06,0.07-0.08,0.1c-0.05-0.26-0.11-0.5-0.15-0.71c0.42-0.18,0.63-0.65,0.49-1.1c-0.15-0.47-0.65-0.74-1.12-0.59
	c-0.23,0.07-0.41,0.23-0.52,0.45C62.02,4.18,62,4.42,62.07,4.65c0.05,0.16,0.15,0.31,0.28,0.42c0.38,1.82,0.82,5.28-0.19,8.85
	l-0.08,0.3l1.57,0.54l0.09-0.34c0.48-1.84,0.36-4.16,0.09-6.14c0.41,1.55,1.21,3.3,3.04,3.55c0.59,0.08,1.6-0.22,3.53-3.76
	c0.92-1.69,1.77-3.62,2.32-4.91c-0.37,1.35-0.89,3.39-1.21,5.3c-0.67,3.98-0.06,4.84,0.46,5.14c0.48,0.28,0.96,0.39,1.44,0.39
	c1.13,0,2.24-0.63,3.14-1.31c-1.43,1.4-2.95,3.15-3.71,4.89l-0.14,0.32l1.57,0.54l0.12-0.28c1.05-2.58,2.95-5.11,5.35-7.12
	c0.1,0,0.2-0.01,0.29-0.04C80.48,10.82,80.74,10.31,80.59,9.84z M62.99,4.62L62.99,4.62c-0.03,0.01-0.06,0.01-0.09,0.01l-0.05,0
	L62.81,4.6c-0.05-0.03-0.1-0.08-0.11-0.15c-0.02-0.07-0.02-0.13,0.01-0.19c0.03-0.06,0.08-0.1,0.13-0.12
	c0.12-0.04,0.26,0.04,0.3,0.17S63.11,4.58,62.99,4.62z M72.64,1.91c-0.05-0.07-0.08-0.14-0.11-0.22c-0.13-0.42,0.08-0.87,0.49-1
	c0.4-0.13,0.84,0.11,0.98,0.53c0.13,0.41-0.08,0.86-0.48,0.99l-0.14,0.05l-0.15-0.01c-0.13-0.01-0.26-0.05-0.38-0.13l-0.13-0.08
	L72.64,1.91z M79.82,10.35c-0.04,0.01-0.08,0.01-0.12,0l-0.05-0.01l-0.04-0.03c-0.03-0.02-0.07-0.06-0.09-0.13
	c-0.04-0.13,0.02-0.27,0.15-0.31c0.12-0.04,0.26,0.04,0.3,0.17l0,0C80.01,10.17,79.94,10.31,79.82,10.35z"/>
<g>
	<path class="st0" d="M55.13,20.84c-4.6-0.26-8.53,3.26-8.79,7.86s3.26,8.53,7.86,8.79s8.53-3.26,8.79-7.86S59.73,21.1,55.13,20.84z
		 M61.94,29.75c-0.21,3.73-3.4,6.58-7.13,6.37c-3.73-0.21-6.58-3.4-6.37-7.13c0.21-3.73,3.4-6.58,7.13-6.37
		C59.3,22.84,62.15,26.03,61.94,29.75z"/>
</g>
<path class="st0" d="M75.35,26.01c-3.89-0.22-7.22,2.82-7.44,6.78c-0.22,3.96,2.75,7.35,6.63,7.57c3.89,0.22,7.22-2.82,7.44-6.78
	C82.21,29.61,79.24,26.23,75.35,26.01z M80.42,33.66c-0.18,3.29-2.95,5.81-6.18,5.63c-3.23-0.18-5.7-2.99-5.51-6.28
	s2.95-5.81,6.18-5.63C78.14,27.56,80.61,30.37,80.42,33.66z"/>
<g>
	<path class="st0" d="M74.56,38.76c-0.1,0-0.19,0-0.29-0.01c-2.89-0.16-5.11-2.69-4.94-5.63c0.17-2.94,2.65-5.2,5.54-5.04l0,0
		c2.89,0.16,5.11,2.69,4.94,5.63C79.65,36.55,77.33,38.76,74.56,38.76z M74.58,28.73c-2.42,0-4.46,1.94-4.6,4.43
		c-0.14,2.58,1.8,4.8,4.33,4.94c2.53,0.14,4.71-1.84,4.85-4.43s-1.8-4.8-4.33-4.94C74.75,28.73,74.66,28.73,74.58,28.73z"/>
</g>
<path class="st0" d="M74.54,30.67c-0.04,0.72-0.66,1.28-1.39,1.24c-0.09-0.01-0.18-0.02-0.26-0.04c-0.05,0.38-0.38,0.67-0.77,0.65
	c-0.41-0.02-0.72-0.37-0.7-0.78c0.02-0.34,0.26-0.61,0.58-0.68c-0.06-0.17-0.09-0.35-0.08-0.54c0.04-0.72,0.66-1.28,1.39-1.24
	C74.02,29.32,74.58,29.95,74.54,30.67z"/>
<g>
	<path class="st0" d="M55.17,35.73c-0.11,0-0.23,0-0.34-0.01c-3.25-0.18-5.75-2.98-5.57-6.23c0.09-1.58,0.78-3.02,1.96-4.07
		c1.18-1.05,2.69-1.58,4.27-1.49l0,0c1.58,0.09,3.02,0.78,4.07,1.96c1.05,1.18,1.58,2.69,1.49,4.27c-0.09,1.58-0.78,3.02-1.96,4.07
		C58.01,35.2,56.63,35.73,55.17,35.73z M55.16,24.56c-2.76,0-5.09,2.17-5.24,4.96c-0.16,2.89,2.06,5.38,4.95,5.54
		c1.4,0.08,2.75-0.39,3.8-1.33c1.05-0.94,1.67-2.22,1.75-3.62c0.08-1.4-0.39-2.75-1.33-3.8c-0.94-1.05-2.22-1.67-3.62-1.74l0,0
		C55.36,24.57,55.26,24.56,55.16,24.56z"/>
</g>
<g>
	<path class="st0" d="M54.42,26.91c-0.04,0.72-0.66,1.28-1.39,1.24c-0.11-0.01-0.21-0.03-0.31-0.06c-0.11,0.26-0.37,0.43-0.67,0.42
		c-0.38-0.02-0.67-0.35-0.65-0.72c0.02-0.27,0.19-0.5,0.43-0.6c-0.04-0.13-0.05-0.28-0.05-0.42c0.04-0.72,0.66-1.28,1.39-1.24
		C53.9,25.56,54.46,26.18,54.42,26.91z"/>
</g>
<path class="st0" d="M51.95,55.5c-4.98-1.08-10.34-0.28-14.79,2.2c-1.72-1.98-0.96-5.15,0.65-7.22c1.61-2.08,3.88-3.53,5.5-5.61
	c0.55-0.71,0.99-1.78,0.36-2.42c-0.46-0.47-1.24-0.38-1.87-0.21c-1.55,0.42-3.02,1.14-4.29,2.12c0.72-0.94,1.47-1.91,1.74-3.07
	c0.08-0.35,0.12-0.73,0-1.08c-0.33-1-1.69-1.2-2.7-0.9s-1.94,0.92-2.99,0.94c0.83-1.67,0.91-3.69,0.22-5.42
	c-0.36-0.91-0.94-1.74-1.66-2.4c-0.54-0.5-1.15-0.91-1.82-1.21c-0.67-0.3-1.49-0.32-2.22-0.4c-1.56-0.17-3.14-0.21-4.7-0.12
	c-3.14,0.17-6.25,0.84-9.18,1.97c-2.92,1.12-5.66,2.7-8.07,4.69c-2.6,2.14-4.88,4.83-5.8,8.07c-0.41,1.45-0.52,3.08,0.22,4.39
	c1.02,1.8,3.31,2.46,5.37,2.46c1.13,3.64,4.46,6.31,8.11,7.41c3.65,1.1,7.59,0.8,11.32,0.01c0.39-0.08,0.81-0.18,1.1-0.47
	c0.29-0.28,0.37-0.81,0.07-1.07c-0.27-0.23-0.68-0.16-1.02-0.08c-3.38,0.82-6.94,1.23-10.31,0.4c-3.37-0.83-6.53-3.09-7.75-6.34
	c5.33-0.74,10.43-3.05,14.5-6.58c1.32-1.15,2.58-2.49,3.1-4.16s0.11-3.74-1.35-4.71c-1.18-0.78-2.72-0.7-4.11-0.43
	c-3.76,0.73-7.29,2.64-9.95,5.39c-2.36,2.44-4.08,5.71-3.9,9.1c-1.27-0.06-2.69-0.18-3.53-1.14c-0.82-0.93-0.78-2.33-0.48-3.53
	c0.73-2.87,2.73-5.27,4.98-7.2c5.6-4.81,13.17-7.25,20.53-6.62c1.84,0.16,3.9,0.65,4.84,2.25c0.61,1.03,0.59,2.32,0.37,3.5
	c-0.26,1.34-0.79,2.67-1.79,3.6c-0.58,0.54-1.29,0.93-1.98,1.32c-3.18,1.8-6.21,3.88-9.02,6.2c-1.07,0.88-2.13,1.82-2.83,3.02
	c-0.21,0.36-0.39,0.76-0.34,1.17c0.15,1.09,1.66,1.26,2.74,1.04c5.86-1.18,11.03-5.39,13.38-10.89c0.17-0.4,0.34-0.82,0.63-1.14
	c0.28-0.31,0.67-0.5,1.05-0.67c1.16-0.5,2.42-0.77,3.68-0.8c-2.32,3.81-5.4,7.16-9,9.79c-0.32,0.24-0.66,0.48-0.84,0.84
	c-0.18,0.36-0.14,0.87,0.21,1.07c0.41,0.25,0.93-0.06,1.31-0.36c4.03-3.19,7.9-6.81,12.73-8.59c-1.86,2.34-4.37,4.12-6.1,6.56
	s-2.45,6.05-0.47,8.29c-2.06,1.28-3.84,2.99-5.21,4.99c-0.25,0.37-0.5,0.78-0.48,1.23c0.02,0.41,0.37,0.83,0.77,0.81
	c0.03,0,0.07-0.01,0.1-0.02c0.28-0.07,0.46-0.35,0.63-0.59c1.22-1.84,2.93-3.35,4.91-4.32c0.31-0.15,0.64-0.29,0.98-0.24
	c0.24,0.04,0.45,0.16,0.66,0.29c4.3,2.51,9.7,3.02,14.4,1.38c1.55-0.54,3.24-1.64,3.21-3.28C55.73,56.9,53.7,55.88,51.95,55.5z
	 M12.36,57.68c0-0.04-0.01-0.09-0.02-0.13C12.35,57.59,12.36,57.64,12.36,57.68z M7.82,46.96c0.11-0.29,0.24-0.58,0.37-0.86
	c0.7-1.41,1.7-2.66,2.83-3.75c2.24-2.15,5.04-3.72,8.05-4.5c1.68-0.44,4.47-0.67,4.69,1.71c0.09,0.91-0.29,1.79-0.78,2.56
	c-1.07,1.7-2.65,3.02-4.33,4.13c-3.43,2.28-7.36,3.8-11.43,4.43C7.14,49.42,7.37,48.15,7.82,46.96z M25.4,47.87
	c-1.19,1.06-2.45,2.06-3.76,2.98c-0.45,0.32-0.89,0.63-1.33,0.91c-0.44,0.28-0.91,0.56-1.4,0.83c-0.22,0.12-0.43,0.2-0.63,0.25
	c-0.03,0-0.06,0.01-0.09,0.02c-0.03-0.01-0.06-0.01-0.09-0.02c0.08-0.14,0.12-0.19,0.12-0.19l0.03-0.03c0.13-0.16,0.27-0.32,0.4-0.5
	c0.78-0.98,1.85-1.8,2.82-2.58c1.89-1.52,3.89-2.86,5.93-4.17c0,0,0.01-0.01,0.01-0.01c0.37-0.25,0.75-0.48,1.12-0.7
	c0.03-0.01,0.05-0.03,0.08-0.04C27.6,45.77,26.53,46.86,25.4,47.87z M54.18,59.19c-0.05,0.12-0.13,0.22-0.23,0.31
	c-0.22,0.22-0.47,0.42-0.73,0.59c-0.16,0.1-0.48,0.36-0.68,0.36c0,0-0.01,0-0.01,0l-0.09,0.04c-0.26,0.12-0.52,0.22-0.75,0.3
	c-0.24,0.08-0.49,0.16-0.75,0.23c-0.53,0.12-1.08,0.21-1.63,0.27c-0.57,0.06-1.14,0.1-1.7,0.13c-1.05,0.05-2.1,0-3.13-0.15
	c-1.01-0.14-2.13-0.37-3.18-0.72c-0.87-0.3-1.7-0.69-2.39-1.2c-0.03-0.02-0.06-0.04-0.09-0.07c0.98-0.51,1.99-0.97,3-1.37
	c1.22-0.49,2.51-0.86,3.83-1.1l0.03-0.01c0.66-0.17,1.41-0.25,2.22-0.25c0.72,0,1.44,0.04,2.15,0.11c0.12,0.03,0.25,0.04,0.42,0.04
	c0.16,0.05,0.3,0.07,0.44,0.08c0.42,0.07,0.85,0.17,1.28,0.3c0.41,0.12,0.79,0.29,1.15,0.51c0.06,0.06,0.13,0.11,0.22,0.17
	c0.05,0.03,0.09,0.06,0.12,0.09l0.13,0.13l0.02,0.01c0.02,0.02,0.04,0.04,0.06,0.07c0.19,0.19,0.31,0.41,0.34,0.67
	C54.22,58.88,54.23,59.04,54.18,59.19z"/>
<path class="st0" d="M40.78,54.3c-0.03,0-0.07,0-0.1,0c-0.43-0.03-0.87-0.24-1.11-0.6c-0.21-0.32-0.25-0.74-0.18-1.12
	c0.07-0.38,0.23-0.74,0.41-1.08c0.56-1.06,1.25-2.04,1.95-3.02c0.67-0.94,1.34-1.87,2.07-2.77c0.1-0.12,0.2-0.24,0.33-0.32
	c0.2-0.12,0.47-0.13,0.69-0.02c0.21,0.11,0.36,0.34,0.38,0.57c0.04,0.39-0.23,0.73-0.47,1.04c-0.74,0.91-1.44,1.85-2.11,2.82
	c-0.34,0.49-0.67,0.98-0.99,1.48c-0.16,0.24-0.31,0.49-0.46,0.74c-0.13,0.22-0.14,0.48-0.27,0.69c0.01-0.02,0.3-0.11,0.35-0.14
	c0.14-0.09,0.26-0.2,0.4-0.28c0.31-0.19,0.61-0.4,0.89-0.62c1.31-0.83,3.79-4.18,5.71-5.11c0.86-0.61,4.73-2.27,5.07-2.58l0.25-0.15
	c0.3-0.29,0.63-0.23,0.95,0.06c0.33,0.3,0.32,0.41,0.01,0.72c-0.52,0.52-1.36,0.47-2.04,0.68c-1.32,0.41-2.59,1.31-3.74,2.08
	c-0.8,0.53-1.45,1.34-2.11,2.03c-0.56,0.59-1.15,1.28-1.69,1.91C43.49,53.16,41.68,54.3,40.78,54.3z M40.68,52.78
	C40.68,52.78,40.68,52.78,40.68,52.78C40.68,52.78,40.68,52.78,40.68,52.78z"/>
<path class="st0" d="M46.32,44.63c-0.11,0-0.25-0.03-0.4-0.12c-0.37-0.23-0.49-0.61-0.3-0.98l0.01-0.02
	c0.13-0.23,0.25-0.45,0.38-0.68l0.02-0.04c0.12-0.21,0.23-0.42,0.35-0.63c0.12-0.23,0.29-0.32,0.41-0.36
	c0.13-0.04,0.33-0.06,0.58,0.07c0.24,0.13,0.33,0.31,0.37,0.44c0.04,0.13,0.05,0.34-0.09,0.6c-0.12,0.21-0.23,0.43-0.35,0.66
	c-0.11,0.23-0.24,0.45-0.36,0.65c-0.12,0.24-0.29,0.34-0.42,0.38C46.46,44.62,46.39,44.63,46.32,44.63z"/>
<path class="st0" d="M49.71,54.33h-0.01c-0.06,0-0.12-0.01-0.18-0.02c-0.02,0-0.03,0-0.05,0c-0.41-0.02-0.8-0.13-1.16-0.33
	c-0.34-0.16-0.62-0.39-0.85-0.7c-0.21-0.29-0.38-0.59-0.5-0.91c-0.12-0.33-0.17-0.7-0.16-1.08c0.02-0.39,0.1-0.75,0.25-1.08l0-0.01
	c0.38-0.8,1.01-1.32,1.87-1.56c0.22-0.07,0.45-0.02,0.63,0.12c0.15,0.12,0.25,0.29,0.28,0.47c0.03,0.16,0.01,0.31-0.04,0.46
	c-0.08,0.19-0.23,0.33-0.44,0.4L49.3,50.1c-0.26,0.06-0.47,0.17-0.65,0.36c-0.18,0.19-0.29,0.41-0.35,0.67
	c-0.04,0.21-0.03,0.43,0.02,0.66c0.05,0.21,0.13,0.39,0.25,0.53l0.02,0.02c0.26,0.34,0.61,0.5,1.1,0.5c0.16,0,0.33-0.02,0.49-0.06
	c0.18-0.04,0.36-0.1,0.54-0.17c0.02-0.01,0.05-0.02,0.07-0.03c0.07-0.04,0.13-0.08,0.2-0.13c0.34-0.28,0.56-0.65,0.66-1.13
	c0.11-0.51,0.11-0.99,0-1.45l0-0.01c-0.07-0.33-0.17-0.66-0.28-1c-0.14-0.4-0.22-0.81-0.22-1.21l0-0.04
	c0.03-0.31,0.1-0.63,0.21-0.95c0.11-0.3,0.25-0.59,0.41-0.87c0.43-0.72,0.99-1.37,1.69-1.93l0.03-0.03c0.4-0.27,0.76-0.14,0.96,0.06
	c0.22,0.22,0.26,0.43,0.25,0.58c-0.01,0.14-0.06,0.34-0.28,0.52c-0.25,0.21-0.48,0.44-0.69,0.69l-0.03,0.03
	c-0.2,0.2-0.39,0.44-0.57,0.69c-0.16,0.24-0.29,0.49-0.38,0.75l0,0.01c-0.1,0.27-0.12,0.52-0.08,0.75c0.06,0.3,0.14,0.62,0.23,0.95
	c0.13,0.4,0.22,0.81,0.26,1.2c0.04,0.34,0.04,0.71,0,1.08c0.41-0.3,0.8-0.63,1.18-0.98c0.76-0.69,1.49-1.41,2.18-2.13l1.18-1.26
	c0.38-0.41,0.75-0.82,1.09-1.24l0.03-0.03c0.14-0.14,0.32-0.21,0.52-0.21c0.2,0,0.38,0.07,0.52,0.21l0.03,0.03
	c0.27,0.33,0.27,0.73-0.01,1.02c-0.12,0.15-0.25,0.3-0.39,0.46c-0.14,0.16-0.27,0.32-0.39,0.47l-0.01,0.01
	c-0.66,0.73-1.34,1.45-2.03,2.13c-0.7,0.69-1.42,1.35-2.15,1.98c-0.41,0.36-0.83,0.69-1.25,1c-0.43,0.31-0.88,0.6-1.35,0.86
	c-0.27,0.14-0.54,0.27-0.82,0.39c-0.27,0.15-0.57,0.27-0.89,0.33c-0.15,0.03-0.31,0.06-0.46,0.08c-0.14,0.02-0.29,0.04-0.43,0.05
	L49.71,54.33z"/>
<g>
	<path class="st0" d="M57.66,56.32h2.27v0.05c0,0.42,0.1,0.74,0.29,0.97c0.2,0.23,0.47,0.35,0.82,0.35c0.27,0,0.5-0.09,0.68-0.26
		c0.18-0.17,0.27-0.39,0.27-0.65c0-0.22-0.07-0.41-0.21-0.59c-0.14-0.18-0.38-0.37-0.72-0.59c-0.18-0.12-0.43-0.28-0.74-0.47
		c-0.58-0.36-0.93-0.61-1.05-0.75c-0.24-0.27-0.41-0.54-0.52-0.81c-0.11-0.27-0.16-0.57-0.16-0.88c0-0.86,0.31-1.57,0.93-2.15
		c0.62-0.58,1.4-0.87,2.34-0.87c0.89,0,1.61,0.27,2.17,0.79c0.56,0.53,0.83,1.22,0.83,2.08v0.15l-2.27-0.01
		c-0.01-0.36-0.09-0.62-0.23-0.81c-0.14-0.18-0.35-0.28-0.61-0.28c-0.24,0-0.44,0.08-0.61,0.23c-0.17,0.15-0.25,0.34-0.25,0.55
		c0,0.34,0.38,0.74,1.13,1.2c0.12,0.08,0.22,0.14,0.3,0.18c0.76,0.47,1.29,0.91,1.59,1.33c0.3,0.41,0.45,0.89,0.45,1.42
		c0,0.92-0.32,1.69-0.95,2.3c-0.63,0.61-1.43,0.92-2.39,0.92c-1.04,0-1.86-0.28-2.46-0.83c-0.6-0.55-0.9-1.3-0.9-2.26
		c0-0.03,0-0.08,0.01-0.16C57.65,56.42,57.66,56.36,57.66,56.32z"/>
	<path class="st0" d="M65.31,55.1c0-0.83,0.16-1.61,0.49-2.35c0.33-0.73,0.79-1.37,1.41-1.91c0.47-0.41,0.99-0.73,1.57-0.94
		c0.58-0.21,1.21-0.32,1.88-0.32c1.36,0,2.48,0.43,3.35,1.3c0.87,0.87,1.31,1.98,1.31,3.34c0,0.76-0.14,1.49-0.41,2.17
		c-0.27,0.68-0.66,1.29-1.17,1.82c-0.48,0.49-1.04,0.86-1.69,1.13c-0.65,0.26-1.35,0.39-2.11,0.39c-1.35,0-2.46-0.44-3.33-1.31
		C65.74,57.56,65.31,56.45,65.31,55.1z M70.51,51.68c-0.85,0-1.56,0.32-2.13,0.96c-0.57,0.64-0.86,1.45-0.86,2.42
		c0,0.75,0.23,1.37,0.7,1.85c0.47,0.48,1.07,0.73,1.8,0.73c0.86,0,1.58-0.32,2.17-0.96c0.59-0.64,0.89-1.43,0.89-2.37
		c0-0.79-0.24-1.43-0.71-1.91C71.91,51.92,71.29,51.68,70.51,51.68z"/>
	<path class="st0" d="M77.42,59.48l-1.86-9.61h2.27l1.23,6.8l3.65-6.8h2.5l-5.29,9.61H77.42z"/>
	<path class="st0" d="M84.18,59.48l1.86-9.61h2.22l-1.86,9.61H84.18z M86.24,48.86l0.41-2.1h2.22l-0.41,2.1H86.24z"/>
	<path class="st0" d="M98.01,56.12c-0.38,1.14-1.01,2.03-1.89,2.66c-0.88,0.63-1.91,0.95-3.11,0.95c-1.37,0-2.49-0.43-3.35-1.3
		c-0.87-0.86-1.3-1.98-1.3-3.34c0-0.82,0.16-1.59,0.48-2.31c0.32-0.72,0.78-1.36,1.38-1.89c0.45-0.41,0.97-0.72,1.55-0.93
		c0.58-0.21,1.19-0.32,1.85-0.32c1.2,0,2.21,0.32,3.04,0.97c0.82,0.65,1.35,1.54,1.59,2.67h-2.28c-0.22-0.51-0.53-0.89-0.94-1.16
		c-0.4-0.26-0.88-0.4-1.44-0.4c-0.88,0-1.6,0.31-2.16,0.93c-0.56,0.62-0.84,1.42-0.84,2.4c0,0.76,0.24,1.38,0.71,1.86
		c0.47,0.48,1.08,0.72,1.83,0.72c0.54,0,1.02-0.13,1.44-0.38c0.43-0.26,0.79-0.63,1.08-1.14H98.01z"/>
	<path class="st0" d="M105.42,59.48l0.12-0.66c-0.33,0.31-0.7,0.54-1.11,0.69c-0.41,0.15-0.86,0.23-1.36,0.23
		c-1.33,0-2.41-0.44-3.23-1.31c-0.83-0.87-1.24-2.01-1.24-3.42c0-0.59,0.09-1.16,0.27-1.7c0.18-0.54,0.45-1.07,0.81-1.57
		c0.48-0.67,1.08-1.18,1.79-1.54c0.71-0.36,1.48-0.53,2.33-0.53c0.64,0,1.23,0.12,1.77,0.37c0.54,0.24,1.02,0.61,1.43,1.08
		l0.24-1.24h2.29l-1.91,9.61H105.42z M103.88,51.68c-0.83,0-1.55,0.32-2.16,0.97c-0.61,0.64-0.91,1.42-0.91,2.33
		c0,0.8,0.23,1.44,0.69,1.93c0.46,0.49,1.07,0.73,1.83,0.73c0.84,0,1.56-0.32,2.14-0.97c0.59-0.64,0.88-1.44,0.88-2.38
		c0-0.76-0.23-1.39-0.7-1.88C105.19,51.93,104.6,51.68,103.88,51.68z"/>
</g>
</svg>
