<?xml version="1.0" encoding="utf-8"?>
<!-- Generator: Adobe Illustrator 23.0.3, SVG Export Plug-In . SVG Version: 6.00 Build 0)  -->
<svg version="1.1" id="Layer_1" xmlns="http://www.w3.org/2000/svg" xmlns:xlink="http://www.w3.org/1999/xlink" x="0px" y="0px"
	 viewBox="0 0 112.86 95.53" style="enable-background:new 0 0 112.86 95.53;" xml:space="preserve">
<style type="text/css">
	.st0{fill:#E6C884;}
</style>
<g>
	<g>
		<g>
			<path class="st0" d="M80.8,4.22C77.77,1.37,73.9,0,69.99,0c-4.4,0-8.83,1.73-12.14,5.04l-1.42,1.42l-1.42-1.42
				C51.7,1.74,47.27,0,42.87,0c-3.91,0-7.78,1.37-10.81,4.22c-6.66,6.27-6.78,16.75-0.36,23.17l24.72,24.72l24.72-24.72
				C87.57,20.97,87.46,10.49,80.8,4.22z"/>
		</g>
	</g>
	<g>
		<g>
			<path class="st0" d="M47.77,95.53l-0.02-24.5c0-11.83-6.06-18.77-14.09-21.38c-2.24-0.68-4.25-2.46-6.11-4.33
				c-3.39-3.53-7.02-8.36-11.71-8.3l0-0.02c-1.53,0.02-3.06,0.57-4.39,1.9c-3.11,3.11-1.86,7.87,0.83,10.56l8.73,8.73
				c0.81,0.81,1.27,1.92,1.27,3.07c0,1.15-0.46,2.26-1.27,3.07L9.2,52.54c-2.05-2.05-3.44-4.82-3.82-7.6
				c-0.47-3.46,0.59-6.7,2.99-9.1c1.8-1.8,4.01-2.81,6.41-3.07l-1.76-7.12C12.88-0.75,0,2.47,0,8.68l0,46.36
				c0,2.88,1.12,5.59,3.14,7.64c21.57,21.77,18.57,14.76,18.57,32.84H47.77z"/>
		</g>
	</g>
	<g>
		<g>
			<path class="st0" d="M112.86,8.68c0-6.21-12.88-9.44-13.02,16.97l-1.76,7.12c2.41,0.26,4.61,1.27,6.41,3.07
				c2.4,2.4,3.46,5.63,2.99,9.1c-0.38,2.78-1.77,5.55-3.82,7.6l-11.8,11.8c-0.81-0.81-1.27-1.92-1.27-3.07
				c0-1.15,0.46-2.26,1.27-3.07l8.73-8.73c2.69-2.69,3.94-7.45,0.83-10.56c-1.33-1.33-2.86-1.88-4.39-1.9l0,0.02
				c-4.7-0.06-8.32,4.77-11.71,8.3c-1.87,1.87-3.87,3.65-6.11,4.33c-8.03,2.61-14.09,9.55-14.09,21.38l-0.02,24.5h26.05
				c0-18.09-3-11.07,18.57-32.84c2.03-2.05,3.14-4.76,3.14-7.64L112.86,8.68z"/>
		</g>
	</g>
</g>
</svg>
