<?xml version="1.0" encoding="utf-8"?>
<!-- Generator: Adobe Illustrator 23.0.3, SVG Export Plug-In . SVG Version: 6.00 Build 0)  -->
<svg version="1.1" id="Layer_1" xmlns="http://www.w3.org/2000/svg" xmlns:xlink="http://www.w3.org/1999/xlink" x="0px" y="0px"
	 viewBox="0 0 106.89 94" style="enable-background:new 0 0 106.89 94;" xml:space="preserve">
<style type="text/css">
	.st0{fill:#E6C884;}
</style>
<g>
	<path class="st0" d="M100.03,36.8c-1.98,0.43-3.62,1.97-4.16,3.93c-0.47,1.71-0.13,3.33,0.69,4.6L84.8,52.94
		c0.21,0.33,0.34,0.72,0.34,1.14c0,1.16-0.94,2.1-2.1,2.1c-1.16,0-2.1-0.94-2.1-2.1s0.94-2.1,2.1-2.1V34.64
		c4.14,0,7.38-3.82,6.4-8.12c-0.54-2.38-2.47-4.31-4.85-4.85c-4.3-0.98-8.12,2.26-8.12,6.4c0,1.81,0.73,3.44,1.91,4.63L67.57,43.42
		c0.38,0.38,0.61,0.9,0.61,1.48c0,1.16-0.94,2.1-2.1,2.1c-1.16,0-2.1-0.94-2.1-2.1c0-0.93,0.6-1.7,1.43-1.99l-9.56-28.28
		c3.41-1.16,5.75-4.65,4.98-8.61c-0.56-2.89-2.86-5.25-5.74-5.85c-4.88-1.03-9.17,2.66-9.17,7.36c0,3.31,2.16,6.1,5.13,7.1
		l-9.56,28.28c0.83,0.28,1.43,1.06,1.43,1.99c0,1.16-0.94,2.1-2.1,2.1c-1.16,0-2.1-0.94-2.1-2.1c0-0.58,0.23-1.1,0.61-1.48
		L28.52,32.69c1.4-1.41,2.17-3.46,1.83-5.68c-0.44-2.85-2.83-5.14-5.7-5.48c-3.99-0.47-7.37,2.63-7.37,6.53
		c0,3.63,2.94,6.57,6.57,6.57v17.34c1.16,0,2.1,0.94,2.1,2.1s-0.94,2.1-2.1,2.1c-1.16,0-2.1-0.94-2.1-2.1
		c0-0.42,0.13-0.81,0.34-1.14l-11.77-7.61c0.82-1.27,1.17-2.89,0.69-4.6c-0.54-1.95-2.18-3.5-4.16-3.93
		c-3.74-0.8-7.02,2.11-6.86,5.74c0.09,1.92,1.3,3.62,2.96,4.59c1.69,0.99,3.17,0.89,4.49,0.43l8.96,25.71
		c0.83,2.37,1.5,4.78,2.03,7.22h70c0.53-2.44,1.21-4.86,2.03-7.22l8.96-25.71c1.31,0.46,2.8,0.56,4.48-0.43
		c1.66-0.97,2.88-2.67,2.97-4.59C107.06,38.92,103.77,36,100.03,36.8z M37.13,65.01c-1.44,0.36-3.21-1.75-3.95-4.71
		c-0.75-2.96-0.19-5.66,1.25-6.02c1.44-0.36,3.21,1.75,3.95,4.71C39.13,61.96,38.57,64.65,37.13,65.01z M53.45,64.92
		c-2.25,0-4.08-3.77-4.08-8.42s1.83-8.42,4.08-8.42c2.25,0,4.08,3.77,4.08,8.42S55.7,64.92,53.45,64.92z M73.71,60.3
		c-0.75,2.96-2.51,5.07-3.95,4.71c-1.44-0.36-2-3.06-1.25-6.02c0.75-2.96,2.52-5.07,3.95-4.71C73.9,54.64,74.46,57.34,73.71,60.3z"
		/>
	<path class="st0" d="M19.36,85.7c0.36,2.71,0.54,5.45,0.54,8.19V94h67.09v-0.11c0-2.74,0.19-5.48,0.54-8.19H19.36z"/>
</g>
</svg>
