<?xml version="1.0" encoding="utf-8"?>
<!-- Generator: Adobe Illustrator 23.0.3, SVG Export Plug-In . SVG Version: 6.00 Build 0)  -->
<svg version="1.1" id="Layer_1" xmlns="http://www.w3.org/2000/svg" xmlns:xlink="http://www.w3.org/1999/xlink" x="0px" y="0px"
	 viewBox="0 0 80.72 94.66" style="enable-background:new 0 0 80.72 94.66;" xml:space="preserve">
<style type="text/css">
	.st0{fill:#E6C884;}
</style>
<path class="st0" d="M79.26,16.35C66.23,12.78,53.13,7.22,41.37,0.28c-0.62-0.37-1.4-0.37-2.02,0c-12.1,7.14-24.49,12.4-37.89,16.07
	C0.6,16.58,0,17.37,0,18.27v20.34c0,20.95,9.67,34.82,17.77,42.76c8.73,8.55,18.9,13.28,22.59,13.28c3.69,0,13.86-4.73,22.59-13.28
	c8.11-7.94,17.77-21.81,17.77-42.76V18.27C80.72,17.37,80.12,16.58,79.26,16.35z M61.84,38.39L37.3,62.93
	c-0.89,0.89-2.07,1.38-3.33,1.38c-1.26,0-2.44-0.49-3.33-1.38L18.88,51.17c-0.89-0.89-1.38-2.07-1.38-3.33
	c0-1.26,0.49-2.44,1.38-3.33c0.89-0.89,2.07-1.38,3.33-1.38c1.26,0,2.44,0.49,3.33,1.38l8.43,8.43l21.21-21.21
	c0.89-0.89,2.07-1.38,3.33-1.38c1.26,0,2.44,0.49,3.33,1.38c0.89,0.89,1.38,2.07,1.38,3.33C63.22,36.31,62.73,37.5,61.84,38.39z"/>
</svg>
